<svg id="default-situational-awareness" width="32" height="32" viewBox="0 0 32 32" xmlns="http://www.w3.org/2000/svg"><path fill="currentColor" d="M16 19.695c3.983 0 7.317-1.444 7.52-3.33-.593-1.77-1.24-3.704-1.874-5.604-.44 1.356-2.874 2.31-5.647 2.31s-5.207-.955-5.648-2.31L8.48 16.367c.2 1.885 3.535 3.33 7.52 3.33zm0-11.92c1.87 0 3.61-.618 4.12-1.578l-1.686-5.044C18.18.395 17.034 0 15.998 0s-2.182.395-2.436 1.153l-1.686 5.044c.51.96 2.25 1.578 4.122 1.578zM30.634 21.45l-6.26-2.688.722 2.145c-.036 2.273-4.174 4.085-9.097 4.085s-9.06-1.812-9.096-4.085l.72-2.145-6.258 2.69c-1.755.753-1.828 2.15-.163 3.102l11.77 6.732c1.666.952 4.39.952 6.055 0l11.77-6.732c1.666-.952 1.592-2.348-.162-3.103z"/><rect fill="none" x="0" y="0" width="32" height="32"></rect></svg>