<svg id="default-import" width="32" height="32" viewBox="0 0 32 32" xmlns="http://www.w3.org/2000/svg"><path fill="currentColor" d="M14.938 3.99c0-.546.45-.99 1-.99h.124c.553 0 1 .444 1 .99V15.91l3.17-3.063c.394-.38 1.032-.38 1.43.004l.07.067c.395.38.386.986-.025 1.356l-4.967 4.47c-.41.368-1.068.37-1.48 0l-4.967-4.47c-.408-.367-.42-.973-.024-1.356l.07-.068c.395-.383 1.033-.386 1.428-.005l3.17 3.063V3.99zM30 17l-4-8h-5l-.25-2h5.245c1.107 0 2.403.796 2.903 1.795L32 15V27.002C32 28.106 31.11 29 29.998 29H2.002C.896 29 0 28.102 0 27.002V15l3.102-6.205C3.598 7.805 4.897 7 6.005 7h5.245L11 9H6l-4 8h6.062c.087.7.264 1.37.52 2H2v8h28v-8h-6.582c.256-.63.433-1.3.52-2H30zm-14 7c-4.08 0-7.446-3.054-7.938-7h2.02c.477 2.838 2.945 5 5.918 5 2.973 0 5.44-2.162 5.917-5h2.02c-.49 3.946-3.857 7-7.937 7z"/><rect fill="none" x="0" y="0" width="32" height="32"></rect></svg>