<svg id="default-tool-area-polygon" width="32" height="32" viewBox="0 0 32 32" xmlns="http://www.w3.org/2000/svg"><path fill="currentColor" d="M9.72 20.865l-.684-.686c-.315-.316-.603-.21-.658.22l-.372 2.914c-.054.428.25.734.68.68l2.915-.372c.43-.054.53-.35.22-.658l-.685-.685.622-.623 9.9-9.9.622-.622.684.686c.315.316.603.21.658-.22l.372-2.914c.054-.428-.25-.734-.68-.68l-2.915.372c-.43.054-.53.35-.22.658l.685.685-.622.623-9.9 9.9-.622.622zM1.79 5.36L30.037.035C31.12-.168 32 .566 32 1.664v28.34c0 1.105-.89 2-2 2H4.214c-1.104 0-2.08-.89-2.182-1.997L.01 7.727c-.102-1.104.694-2.163 1.78-2.368zm2.235 24.466c.007.076.12.178.19.178H30c.002 0 0-28.34 0-28.34 0 .152.258.365.406.337L2.162 7.325c-.072.014-.17.142-.162.22l2.025 22.282z"/><rect fill="none" x="0" y="0" width="32" height="32"></rect></svg>