<svg id="default-selection-square" width="32" height="32" viewBox="0 0 32 32" xmlns="http://www.w3.org/2000/svg"><path fill="currentColor" d="M32 1.6v3.2c0 .9-.7 1.6-1.6 1.6s-1.6-.7-1.6-1.6V1.6c0-.9.7-1.6 1.6-1.6S32 .7 32 1.6zm0 9.6v3.2c0 .9-.7 1.6-1.6 1.6s-1.6-.7-1.6-1.6v-3.2c0-.9.7-1.6 1.6-1.6s1.6.7 1.6 1.6zm0 9.6V24c0 .9-.7 1.6-1.6 1.6s-1.6-.7-1.6-1.6v-3.2c0-.9.7-1.6 1.6-1.6s1.6.7 1.6 1.6zm0 9.6c0 .9-.7 1.6-1.6 1.6h-3.2c-.9 0-1.6-.7-1.6-1.6s.7-1.6 1.6-1.6h3.2c.9 0 1.6.7 1.6 1.6zM25.6 1.6c0 .9-.7 1.6-1.6 1.6h-3.2c-.9 0-1.6-.7-1.6-1.6S19.9 0 20.8 0H24c.9 0 1.6.7 1.6 1.6zm-3.2 28.8c0 .9-.7 1.6-1.6 1.6h-3.2c-.9 0-1.6-.7-1.6-1.6s.7-1.6 1.6-1.6h3.2c.9 0 1.6.7 1.6 1.6zM16 1.6c0 .9-.7 1.6-1.6 1.6h-3.2c-.9 0-1.6-.7-1.6-1.6S10.3 0 11.2 0h3.2c.9 0 1.6.7 1.6 1.6zm-3.2 28.8c0 .9-.7 1.6-1.6 1.6H8c-.9 0-1.6-.7-1.6-1.6s.7-1.6 1.6-1.6h3.2c.9 0 1.6.7 1.6 1.6zM6.4 1.6c0 .9-.7 1.6-1.6 1.6H1.6C.7 3.2 0 2.5 0 1.6S.7 0 1.6 0h3.2c.9 0 1.6.7 1.6 1.6zM3.2 8v3.2c0 .9-.7 1.6-1.6 1.6S0 12.1 0 11.2V8c0-.9.7-1.6 1.6-1.6s1.6.7 1.6 1.6zm0 9.6v3.2c0 .9-.7 1.6-1.6 1.6S0 21.7 0 20.8v-3.2c0-.9.7-1.6 1.6-1.6s1.6.7 1.6 1.6zm0 12.8c0 .9-.7 1.6-1.6 1.6S0 31.3 0 30.4v-3.2c0-.9.7-1.6 1.6-1.6s1.6.7 1.6 1.6v3.2z"/><rect fill="none" x="0" y="0" width="32" height="32"></rect></svg>