<svg id="default-list" width="32" height="32" viewBox="0 0 32 32" xmlns="http://www.w3.org/2000/svg"><path fill="currentColor" d="M0 6c0-1.105.89-2 2.002-2h27.996C31.104 4 32 4.888 32 6c0 1.105-.89 2-2.002 2H2.002C.896 8 0 7.112 0 6zm0 10c0-1.105.89-2 2.002-2h27.996c1.106 0 2.002.888 2.002 2 0 1.105-.89 2-2.002 2H2.002C.896 18 0 17.112 0 16zm0 10c0-1.105.89-2 2.002-2h27.996c1.106 0 2.002.888 2.002 2 0 1.105-.89 2-2.002 2H2.002C.896 28 0 27.112 0 26z"/><rect fill="none" x="0" y="0" width="32" height="32"></rect></svg>