<svg id="default-search-alt" width="32" height="32" viewBox="0 0 32 32" xmlns="http://www.w3.org/2000/svg"><path fill="currentColor" d="M28.463 27.052L22.58 21.17c-.437.503-.91.976-1.414 1.413l5.883 5.883 1.413-1.414zm1.414 1.414L31.71 30.3c.387.386.388 1.014-.005 1.408-.39.39-1.027.387-1.41.005l-1.832-1.833 1.414-1.414zM0 12C0 5.373 5.373 0 12 0s12 5.373 12 12-5.373 12-12 12S0 18.627 0 12zm22 0c0-5.523-4.477-10-10-10S2 6.477 2 12s4.477 10 10 10 10-4.477 10-10z"/><rect fill="none" x="0" y="0" width="32" height="32"></rect></svg>