<svg id="default-tool-image" width="32" height="32" viewBox="0 0 32 32" xmlns="http://www.w3.org/2000/svg"><path fill="currentColor" d="M10.613 16l3.093 4.48h1.547l5.173-11.04 6.453 12.533H5.225L10.613 16zm0-1.493c-1.28 0-2.293-1.013-2.293-2.24s1.013-2.24 2.293-2.24c1.28 0 2.347 1.013 2.347 2.24-.053 1.227-1.067 2.24-2.347 2.24zM28.8 26.667H3.2c-1.76 0-3.2-1.44-3.2-3.2V8.534c0-1.76 1.44-3.2 3.2-3.2h25.6c1.76 0 3.2 1.44 3.2 3.2v14.933c0 1.76-1.44 3.2-3.2 3.2zM3.2 7.467c-.587 0-1.067.48-1.067 1.067v14.933c0 .587.48 1.067 1.067 1.067h25.6c.587 0 1.067-.48 1.067-1.067V8.534c0-.587-.48-1.067-1.067-1.067H3.2z"/><rect fill="none" x="0" y="0" width="32" height="32"></rect></svg>