<svg id="default-unexpire" width="32" height="32" viewBox="0 0 32 32" xmlns="http://www.w3.org/2000/svg"><path fill="currentColor" d="M10.128 27.255C12.408 28.98 15.23 30 18.286 30 25.86 30 32 23.732 32 16S25.86 2 18.286 2C10.712 2 4.57 8.268 4.57 16H8c0-5.8 4.605-10.5 10.286-10.5 5.68 0 10.285 4.7 10.285 10.5s-4.603 10.5-10.283 10.5c-2.274 0-4.375-.753-6.078-2.028l-1.93 2.593c-.05.065-.1.13-.15.19h-.002zm-2.58-2.308c-.382.513-.998.517-1.383 0L.195 16.93C-.187 16.415.01 16 .633 16H13.08c.624 0 .823.412.438.93l-5.97 8.017zM19 9.995c0-.54-.448-.995-1-.995-.556 0-1 .446-1 .995v5.273c-.598.345-1 .992-1 1.732 0 1.105.895 2 2 2 .18 0 .353-.024.518-.068l2.85 2.85c.38.38 1.02.387 1.41-.004.393-.393.392-1.022.003-1.41l-2.848-2.85c.044-.165.068-.34.068-.518 0-.74-.402-1.387-1-1.732V9.995z"/><rect fill="none" x="0" y="0" width="32" height="32"></rect></svg>