<svg id="default-search" width="32" height="32" viewBox="0 0 32 32" xmlns="http://www.w3.org/2000/svg"><path fill="currentColor" d="M3.537 27.052L9.42 21.17c.437.503.91.976 1.414 1.413L4.95 28.466l-1.413-1.414zm-1.414 1.414L.29 30.3c-.387.386-.388 1.014.005 1.408.39.39 1.027.387 1.41.005l1.832-1.833-1.414-1.414zM32 12c0-6.627-5.373-12-12-12S8 5.373 8 12s5.373 12 12 12 12-5.373 12-12zm-22 0c0-5.523 4.477-10 10-10s10 4.477 10 10-4.477 10-10 10-10-4.477-10-10z"/><rect fill="none" x="0" y="0" width="32" height="32"></rect></svg>