<svg id="default-bio-health" width="32" height="32" viewBox="0 0 32 32" xmlns="http://www.w3.org/2000/svg"><path fill="currentColor" d="M31.437 19.038L26.3 16.046 31.48 13.1c.496-.272.676-.907.36-1.45l-4.056-7.117c-.27-.5-.947-.68-1.442-.363l-5.138 2.946.045-5.983c0-.59-.45-1.043-1.036-1.088L12.01 0c-.585 0-1.08.5-1.08 1.088l-.046 5.938-5.138-2.992c-.496-.317-1.172-.136-1.442.363L.202 11.423c-.316.5-.135 1.18.36 1.45l5.14 3.037-5.184 2.946c-.496.272-.676.952-.36 1.45l4.056 7.118c.27.544.947.68 1.442.408l5.138-2.946-.045 5.983c0 .588.45 1.087 1.036 1.087l8.203.045c.585 0 1.08-.453 1.08-1.043l.046-5.984 5.138 2.992c.496.317 1.172.136 1.442-.363l4.102-7.117c.316-.5.135-1.133-.36-1.45zM19.884 9.24c-.316.36-1.127.225-1.848-.36s-1.082-1.353-.766-1.714c.316-.36 1.127-.225 1.848.36.72.542 1.082 1.308.766 1.714zm-4.598 20.057l-.045-4.462c.18.09.407.18.587.36.045.09-.09 3.427-.09 4.148l-.45-.045zm.677-14.648l.135.044-.18 6.85c-.045 0-.54-.27-.72-.36 0-.045-.09-5.77-.09-6.94.27.18.585.27.855.405zm1.848 9.78c.497 1.216.09 2.658-1.08 3.29v-.857c0-.09.18-.27.224-.36.045-.136.09-.27.09-.407v-.45c-.18-1.353-1.532-1.714-2.614-2.255-.586-.27-1.172-.585-1.578-1.08s-.63-1.128-.676-1.76c-.09-1.35.72-2.433 1.938-3.02v1.58c0 .044-.316.27-.316.36-.27.406-.316.947-.225 1.352.18.947 1.262 1.307 2.028 1.713.902.45 1.85.992 2.21 1.893zM15.06 10.41l-.044-4.958c-.586-.27-1.037-.856-.992-1.532 0-.9.766-1.668 1.668-1.668.947 0 1.713.766 1.713 1.713 0 .676-.45 1.262-1.037 1.532l-.135 5.498c-.45-.18-.856-.316-1.172-.586zm3.472 6.265c-.36.586-.9.992-1.532 1.262v-.902c0-.225-.09-.72.09-.856.406-.45.54-1.262.135-1.758-.406-.586-1.307-.856-1.938-1.082-1.307-.54-2.614-1.217-2.975-2.704-.316-1.442.316-2.975 1.668-3.606l.045 1.623c0 .09-.09.18-.18.27-.045.135-.135.27-.135.406-.045.226-.045.407-.045.632.045.676.45 1.127.992 1.487 1.037.63 2.3.81 3.29 1.622 1.082.81 1.307 2.39.586 3.606zM14.475 27.81v.45c-.225 0-.496-.044-.766-.044-.18 0-.136-.045-.136-.27 0-.135.225-.09.316-.09.225 0 .406 0 .586-.045z"/><rect fill="none" x="0" y="0" width="32" height="32"></rect></svg>