<svg id="default-offline-complete" width="32" height="32" viewBox="0 0 32 32" xmlns="http://www.w3.org/2000/svg"><path fill="currentColor" d="M4.086 13.02C1.648 14.39 0 17 0 20c0 4.41 3.578 8 7.992 8h16.016C28.422 28 32 24.418 32 20c0-2.975-1.63-5.578-4.045-6.956C27.475 7.97 23.2 4 18 4c-2.392 0-4.59.84-6.31 2.24C11.154 6.085 10.587 6 10 6c-3.314 0-6 2.686-6 6 0 .347.03.688.086 1.02zm9.36 6.55l9.113-9.275c.386-.393 1.013-.393 1.4 0 .387.394.387 1.033 0 1.427l-9.808 9.983-.005-.005c-.002 0-.003.003-.005.005-.387.393-1.014.393-1.4 0L8.54 17.43c-.387-.395-.387-1.034 0-1.427.387-.394 1.014-.394 1.4 0l3.506 3.567z"/><rect fill="none" x="0" y="0" width="32" height="32"></rect></svg>