<svg id="default-globe" width="32" height="32" viewBox="0 0 32 32" xmlns="http://www.w3.org/2000/svg"><path fill="currentColor" d="M32 16c0 8.853-7.147 16-16 16S0 24.853 0 16 7.147 0 16 0s16 7.147 16 16zm-8 4.64c0-2.613-2.08-4.693-4.693-4.693H16.64c-1.973 0-3.307-1.013-3.307-2.347 0-.907.747-1.653 1.653-1.653 1.333 0 1.387 1.333 2.347 1.333.747 0 1.333-.587 1.333-1.333 0-1.28-.64-1.973-1.28-2.613.373-.693 1.227-2.56 1.28-5.227 0-.32-.213-.64-.533-.693-.693-.107-1.387-.16-2.133-.16-5.653.267-9.333 2.933-9.333 7.413 0 4 3.36 7.307 7.36 7.307h.107c-.053.32-.107.693-.107 1.013 0 2.027 1.387 3.787 3.307 4.213V28c0 .373.32.693.693.693C20 28.64 24 25.333 24 20.64z"/><rect fill="none" x="0" y="0" width="32" height="32"></rect></svg>