<svg id="default-menu-cancel" width="32" height="32" viewBox="0 0 32 32" xmlns="http://www.w3.org/2000/svg"><path fill="currentColor" d="M4.292.542c-.782-.782-2.053-.78-2.834 0l-.915.916c-.783.783-.785 2.05 0 2.834L12.25 16 .542 27.708c-.782.782-.78 2.053 0 2.834l.916.915c.783.783 2.05.785 2.834 0L16 19.75l11.708 11.708c.782.782 2.053.78 2.834 0l.915-.916c.783-.783.785-2.05 0-2.834L19.75 16 31.458 4.292c.782-.782.78-2.053 0-2.834L30.54.543c-.783-.783-2.05-.785-2.834 0L16 12.25 4.292.542z"/><rect fill="none" x="0" y="0" width="32" height="32"></rect></svg>