<svg id="default-clock" width="32" height="32" viewBox="0 0 32 32" xmlns="http://www.w3.org/2000/svg"><path fill="currentColor" d="M0 16C0 7.163 7.163 0 16 0s16 7.163 16 16-7.163 16-16 16S0 24.837 0 16zm30 0c0-7.732-6.268-14-14-14S2 8.268 2 16s6.268 14 14 14 14-6.268 14-14zM8.93 8.93c.39-.392.39-1.025 0-1.415-.392-.39-1.025-.39-1.415 0-.39.39-.39 1.023 0 1.414.39.39 1.023.39 1.414 0zm15.555 15.555c.39-.39.39-1.023 0-1.414-.39-.39-1.023-.39-1.414 0-.39.392-.39 1.025 0 1.415.392.39 1.025.39 1.415 0zM23.07 8.93c.392.39 1.025.39 1.415 0 .39-.392.39-1.025 0-1.415-.39-.39-1.023-.39-1.414 0-.39.39-.39 1.023 0 1.414zM7.516 24.484c.39.39 1.023.39 1.414 0 .39-.39.39-1.023 0-1.414-.392-.39-1.025-.39-1.415 0-.39.392-.39 1.025 0 1.415zM4 16c0 .552.448 1 1 1s1-.448 1-1-.448-1-1-1-1 .448-1 1zm12 12c.552 0 1-.448 1-1s-.448-1-1-1-1 .448-1 1 .448 1 1 1zm1-13V5.002C17 4.456 16.552 4 16 4c-.556 0-1 .45-1 1.002V16c0 .556.45 1 1.002 1h9.996c.546 0 1.002-.448 1.002-1 0-.556-.45-1-1.002-1H17z"/><rect fill="none" x="0" y="0" width="32" height="32"></rect></svg>