<svg id="default-trash" width="32" height="32" viewBox="0 0 32 32" xmlns="http://www.w3.org/2000/svg"><path fill="currentColor" d="M10 6H4.003C3.45 6 3 6.448 3 7c0 .556.45 1 1.003 1h1.21l2.326 22.003C7.654 31.105 8.64 32 9.74 32h12.52c1.103 0 2.085-.894 2.2-1.997L26.79 8h1.21C28.547 8 29 7.552 29 7c0-.556-.45-1-1.003-1H22V1.998C22 .888 21.1 0 19.99 0h-7.98C10.9 0 10 .895 10 1.998V6zM7.5 8h17l-2 22h-13l-2-22zm12.445 2.993c.03-.548.5-.993 1.055-.993.552 0 .975.445.945.993l-.89 16.014c-.03.548-.5.993-1.055.993-.552 0-.975-.445-.945-.993l.89-16.014zm-9.89 0c-.03-.548.39-.993.945-.993.552 0 1.025.445 1.055.993l.89 16.014c.03.548-.39.993-.945.993-.552 0-1.025-.445-1.055-.993l-.89-16.014zm4.945 0c0-.548.444-.993 1-.993.552 0 1 .445 1 .993v16.014c0 .548-.444.993-1 .993-.552 0-1-.445-1-.993V10.993zM12 2h8v4h-8V2z"/><rect fill="none" x="0" y="0" width="32" height="32"></rect></svg>