<svg id="default-refresh" width="32" height="32" viewBox="0 0 32 32" xmlns="http://www.w3.org/2000/svg"><path fill="currentColor" d="M4.007 16.418C4.227 22.852 9.513 28 16 28c4.544 0 8.497-2.525 10.535-6.25l-1.487-1.485C23.448 23.655 19.998 26 16 26c-5.377 0-9.763-4.244-9.99-9.565l2.283 2.272c.39.39 1.024.39 1.414 0 .39-.39.39-1.024 0-1.414l-4-4c-.39-.39-1.024-.39-1.414 0l-4 4c-.39.39-.39 1.024 0 1.414.39.39 1.024.39 1.414 0l2.3-2.29zm23.986-.836C27.773 9.148 22.487 4 16 4c-4.547 0-8.504 2.53-10.54 6.258l1.488 1.487C8.546 8.35 11.998 6 16 6c5.377 0 9.763 4.244 9.99 9.565l-2.283-2.272c-.39-.39-1.024-.39-1.414 0-.39.39-.39 1.024 0 1.414l4 4c.39.39 1.024.39 1.414 0l4-4c.39-.39.39-1.024 0-1.414-.39-.39-1.024-.39-1.414 0l-2.3 2.29z"/><rect fill="none" x="0" y="0" width="32" height="32"></rect></svg>