<svg id="default-asterick" width="32" height="32" viewBox="0 0 32 32" xmlns="http://www.w3.org/2000/svg"><path fill="currentColor" d="M18.14 32c1.104 0 1.954-.893 1.898-2l-.41-8.06 7.27 4.344c.943.564 2.18.265 2.764-.67l2.07-3.323c.584-.934.247-2.083-.75-2.567L23.3 16l7.68-3.723c.997-.484 1.335-1.632.75-2.568l-2.07-3.323c-.584-.935-1.822-1.235-2.766-.67l-7.268 4.342.41-8.06c.055-1.105-.8-2-1.9-2h-4.263c-1.105 0-1.965.893-1.92 2l.328 8.06-7.268-4.344c-.944-.564-2.178-.252-2.75.688l-2 3.288c-.573.944-.24 2.1.75 2.585L8.61 16l-7.596 3.722c-.987.484-1.32 1.645-.748 2.585l2 3.288c.575.944 1.806 1.252 2.75.688l7.268-4.343-.328 8.06c-.045 1.105.82 2 1.92 2h4.263z"/><rect fill="none" x="0" y="0" width="32" height="32"></rect></svg>