<svg id="default-recenter" width="32" height="32" viewBox="0 0 32 32" xmlns="http://www.w3.org/2000/svg"><path fill="currentColor" d="M27.834 18C26.882 23.675 21.946 28 16 28S5.118 23.675 4.166 18h4.837c.544 0 .997-.452.997-1.01v-1.98c0-.567-.446-1.01-.997-1.01H4.166C5.01 8.975 8.976 5.01 14 4.166v4.837c0 .55.443.997 1.01.997h1.98c.558 0 1.01-.453 1.01-.997V4.166c5.025.843 8.99 4.81 9.834 9.834h-4.837c-.55 0-.997.443-.997 1.01v1.98c0 .558.453 1.01.997 1.01h4.837zM0 16C0 7.163 7.163 0 16 0s16 7.163 16 16-7.163 16-16 16S0 24.837 0 16zm14 11.834v-4.837c0-.55.443-.997 1.01-.997h1.98c.558 0 1.01.453 1.01.997v4.837c-.65.11-1.32.166-2 .166-.68 0-1.35-.057-2-.166z"/><rect fill="none" x="0" y="0" width="32" height="32"></rect></svg>