<svg id="default-tool-free-line" width="32" height="32" viewBox="0 0 32 32" xmlns="http://www.w3.org/2000/svg"><path fill="currentColor" d="M30.933 26.667c-.427 0-.8-.267-1.013-.693-1.653-4.16-3.68-6.667-5.973-7.413-3.253-1.066-6.933 1.28-10.507 3.574-4.053 2.56-8.267 5.227-11.253 1.76-5.333-6.187.107-14.667 3.733-18.24.427-.427 1.067-.427 1.493 0s.427 1.067 0 1.493c-.107.107-8.96 9.12-3.627 15.36 1.707 1.973 4.32.48 8.48-2.187 3.787-2.4 8.107-5.173 12.32-3.787 2.933.96 5.333 3.787 7.253 8.64.212.533-.054 1.173-.588 1.387-.053.107-.213.107-.32.107z"/><rect fill="none" x="0" y="0" width="32" height="32"></rect></svg>