<svg id="default-attachment" width="32" height="32" viewBox="0 0 32 32" xmlns="http://www.w3.org/2000/svg"><path fill="currentColor" d="M4.272 18.08c-2.666 2.667-2.663 6.98.004 9.647 2.66 2.66 6.985 2.664 9.645.004l16.175-16.174c.395-.395 1.04-.39 1.425-.005l.188.19c.392.39.388 1.03-.005 1.424L15.53 29.34c-3.55 3.548-9.314 3.544-12.863-.005-3.554-3.554-3.557-9.307-.003-12.862l14.48-14.48L18.752 3.6 17.137 2c2.665-2.666 6.99-2.666 9.653-.004 2.667 2.667 2.668 6.98-.004 9.653L12.323 26.112c-1.78 1.778-4.664 1.78-6.44.006-1.777-1.78-1.774-4.66.007-6.44L18.04 7.53c.39-.392 1.034-.384 1.42 0l.187.188c.392.393.392 1.028 0 1.42l-12.15 12.15c-.893.894-.894 2.334-.005 3.223.886.887 2.33.885 3.223-.006l14.46-14.46c1.786-1.787 1.786-4.66.007-6.44-1.774-1.773-4.66-1.773-6.437.003"/><rect fill="none" x="0" y="0" width="32" height="32"></rect></svg>