<svg id="default-list-alt" width="32" height="32" viewBox="0 0 32 32" xmlns="http://www.w3.org/2000/svg"><path fill="currentColor" d="M2 6c1.105 0 2-.895 2-2s-.895-2-2-2-2 .895-2 2 .895 2 2 2zm6-2c0-.552.447-1 1-1h22c.552 0 1 .444 1 1 0 .552-.447 1-1 1H9c-.552 0-1-.444-1-1zM2 14c1.105 0 2-.895 2-2s-.895-2-2-2-2 .895-2 2 .895 2 2 2zm6-2c0-.552.447-1 1-1h22c.552 0 1 .444 1 1 0 .552-.447 1-1 1H9c-.552 0-1-.444-1-1zM2 22c1.105 0 2-.895 2-2s-.895-2-2-2-2 .895-2 2 .895 2 2 2zm6-2c0-.552.447-1 1-1h22c.552 0 1 .444 1 1 0 .552-.447 1-1 1H9c-.552 0-1-.444-1-1zM2 30c1.105 0 2-.895 2-2s-.895-2-2-2-2 .895-2 2 .895 2 2 2zm6-2c0-.552.447-1 1-1h22c.552 0 1 .444 1 1 0 .552-.447 1-1 1H9c-.552 0-1-.444-1-1z"/><rect fill="none" x="0" y="0" width="32" height="32"></rect></svg>