<svg id="default-offline-enable" width="32" height="32" viewBox="0 0 32 32" xmlns="http://www.w3.org/2000/svg"><path fill="currentColor" d="M19.533 17.553c.39-.39 1.024-.39 1.414 0 .39.39.39 1.024 0 1.414l-4.24 4.24c-.195.195-.45.293-.707.293-.256 0-.512-.098-.707-.293l-4.24-4.24c-.39-.39-.39-1.024 0-1.414.39-.39 1.024-.39 1.414 0L15 20.086V10.5c0-.552.448-1 1-1s1 .448 1 1v9.586l2.533-2.533zM4.086 13.02C1.648 14.39 0 17 0 20c0 4.41 3.578 8 7.992 8h16.016C28.422 28 32 24.418 32 20c0-2.975-1.63-5.578-4.045-6.956C27.475 7.97 23.2 4 18 4c-2.392 0-4.59.84-6.31 2.24C11.154 6.085 10.587 6 10 6c-3.314 0-6 2.686-6 6 0 .347.03.688.086 1.02zm.98 1.742C3.186 15.818 2 17.804 2 20c0 3.31 2.687 6 5.992 6h16.016C27.318 26 30 23.314 30 20c0-2.18-1.174-4.157-3.036-5.22l-.902-.513-.098-1.034C25.577 9.15 22.134 6 18 6c-1.867 0-3.63.64-5.047 1.792l-.816.665-1.01-.296C10.768 8.056 10.388 8 10 8c-2.21 0-4 1.79-4 4 0 .23.02.46.058.682l.237 1.39-1.23.69z"/><rect fill="none" x="0" y="0" width="32" height="32"></rect></svg>