<svg id="default-arrow-back" width="32" height="32" viewBox="0 0 32 32" xmlns="http://www.w3.org/2000/svg"><path fill="currentColor" d="M7.167 14l10.56-10.827c.378-.387.38-1.027-.004-1.42L16.3.292c-.382-.392-1.007-.39-1.392.004L.292 15.283c-.393.402-.386 1.036 0 1.432L14.908 31.7c.393.402 1.01.397 1.393.003l1.423-1.458c.384-.393.386-1.03.004-1.42L7.167 17.997h23.837c.556 0 .996-.452.996-1.01v-1.98c0-.565-.446-1.008-.996-1.008H7.167z"/><rect fill="none" x="0" y="0" width="32" height="32"></rect></svg>