<svg id="default-regional-overview" width="32" height="32" viewBox="0 0 32 32" xmlns="http://www.w3.org/2000/svg"><path fill="currentColor" d="M18.063 18.946C17.39 18.982 16.7 19 16 19c-.7 0-1.39-.018-2.063-.054C13.475 22.366 10.545 25 7 25c-3.866 0-7-3.134-7-7 0-2.19 1.005-4.144 2.58-5.427C3.49 11.475 5.43 10.536 8 9.896 8.057 8.286 9.378 7 11 7c1.198 0 2.232.702 2.713 1.718C14.36 8.265 15.15 8 16 8c.85 0 1.64.265 2.287.718C18.767 7.702 19.802 7 21 7c1.622 0 2.943 1.287 2.998 2.896 2.57.64 4.51 1.58 5.423 2.677C30.996 13.856 32 15.81 32 18c0 3.866-3.134 7-7 7-3.545 0-6.475-2.635-6.937-6.054zM12 18c0-2.76-2.24-5-5-5s-5 2.24-5 5 2.24 5 5 5 5-2.24 5-5zm6-3c0-1.105-.895-2-2-2s-2 .895-2 2 .895 2 2 2 2-.895 2-2zm12 3c0-2.76-2.24-5-5-5s-5 2.24-5 5 2.24 5 5 5 5-2.24 5-5z"/><rect fill="none" x="0" y="0" width="32" height="32"></rect></svg>