<svg id="default-zoom" width="32" height="32" viewBox="0 0 32 32" xmlns="http://www.w3.org/2000/svg"><path fill="currentColor" d="M.29.293C.11.473 0 .723 0 .997v6.006C0 7.547.448 8 1 8c.556 0 1-.446 1-.997V2h5.003C7.547 2 8 1.552 8 1c0-.556-.446-1-.997-1H.997c-.27 0-.52.112-.702.292H.29zm31.42 0c.18.18.29.43.29.704v6.006c0 .544-.448.997-1 .997-.556 0-1-.446-1-.997V2h-5.003C24.453 2 24 1.552 24 1c0-.556.446-1 .997-1h6.006c.27 0 .52.112.702.292h.005zM.29 31.707c-.18-.18-.29-.43-.29-.704v-6.006C0 24.453.448 24 1 24c.556 0 1 .446 1 .997V30h5.003c.544 0 .997.448.997 1 0 .556-.446 1-.997 1H.997c-.27 0-.52-.112-.702-.292H.29zm31.42 0c.18-.18.29-.43.29-.704v-6.006c0-.544-.448-.997-1-.997-.556 0-1 .446-1 .997V30h-5.003c-.544 0-.997.448-.997 1 0 .556.446 1 .997 1h6.006c.27 0 .52-.112.702-.292h.005zM6.005 4h19.99C27.102 4 28 4.897 28 6.005v19.99C28 27.102 27.103 28 25.995 28H6.005C4.898 28 4 27.103 4 25.995V6.005C4 4.898 4.897 4 6.005 4zM6 25.995c0 .003 19.995.005 19.995.005C25.998 26 26 6.005 26 6.005 26 6.002 6.005 6 6.005 6 6.002 6 6 25.995 6 25.995zm4-13.986c0-1.11.902-2.01 2.01-2.01h7.98c1.11 0 2.01.902 2.01 2.01v7.98c0 1.11-.902 2.01-2.01 2.01h-7.98C10.9 22 10 21.098 10 19.99v-7.98z"/><rect fill="none" x="0" y="0" width="32" height="32"></rect></svg>