<svg id="default-question" width="32" height="32" viewBox="0 0 32 32" xmlns="http://www.w3.org/2000/svg"><path fill="currentColor" d="M0 16C0 7.2 7.2 0 16 0 24.8 0 32 7.2 32 16 32 24.8 24.8 32 16 32 7.2 32 0 24.8 0 16L0 16ZM30 16C30 8.3 23.7 2 16 2 8.3 2 2 8.3 2 16 2 23.7 8.3 30 16 30 23.7 30 30 23.7 30 16L30 16ZM16.1 26C17.4 26 18.5 24.9 18.5 23.6 18.5 22.4 17.4 21.3 16.1 21.3 14.8 21.3 13.7 22.4 13.7 23.6 13.7 24.9 14.8 26 16.1 26L16.1 26ZM14.7 19.8L17.9 18.8C17.6 18.6 17.4 18.1 17.4 17.6 17.4 15.2 22.2 14.8 22.2 10.6 22.2 7.9 19.9 6 16.2 6 13.7 6 11.3 7 9.8 8.8L12.1 11.5C13 10.4 14.3 9.7 15.7 9.7 17.3 9.7 18 10.4 18 11.3 18 13.3 13.7 13.7 13.7 17.2 13.7 18.2 14.1 19.1 14.7 19.8L14.7 19.8"/><rect fill="none" x="0" y="0" width="32" height="32"></rect></svg>