<svg id="default-tool-free-polygon" width="32" height="32" viewBox="0 0 32 32" xmlns="http://www.w3.org/2000/svg"><path fill="currentColor" d="M21.707 32c-2.88 0-3.68-2.773-4.373-5.227-.587-2.027-1.173-4.107-2.72-4.853-.427-.213-.747-.267-1.013-.267-.692 0-1.12.64-1.76 1.653S10.4 25.6 8.91 25.6c-.267 0-.533-.054-.8-.108C4.588 24.372-1.012 12.8.16 8.96 1.23 5.385 9.07.105 12.375.105c.64 0 1.12.16 1.493.533 1.12 1.012 1.12 3.092 1.12 5.546 0 1.12 0 3.2.32 3.787.48-.32 1.333-1.707 1.92-2.72C19.094 4.266 21.6.106 25.6.106c.64 0 1.333.107 1.973.32 1.653.533 2.667 1.387 3.04 2.507.64 1.973-.853 4.053-2.347 6.08-1.013 1.44-2.187 3.04-2.027 4 .16 1.12 1.12 1.76 2.612 2.613 1.6.907 3.573 2.027 3.093 4.533-.587 3.306-4.8 11.572-9.92 11.946-.107-.107-.213-.107-.32-.107zM13.6 19.467c.64 0 1.28.16 1.973.48 2.4 1.173 3.2 3.84 3.84 6.187.747 2.613 1.227 3.787 2.453 3.68 3.52-.267 7.36-6.933 7.947-10.187.16-.907-.32-1.333-2.027-2.293-1.493-.853-3.307-1.867-3.68-4.107-.267-1.813 1.067-3.68 2.4-5.547 1.013-1.44 2.347-3.253 2.027-4.16-.16-.533-1.013-.907-1.653-1.173-.427-.16-.907-.213-1.28-.213-2.773 0-4.853 3.36-6.56 6.08C17.707 10.4 16.693 12 15.253 12h-.107c-2.293-.16-2.293-3.092-2.293-5.972 0-1.227 0-3.413-.373-3.893h-.107c-2.4 0-9.387 4.747-10.133 7.307-.853 2.88 4.427 13.227 6.56 13.92.053 0 .107.053.16.053.32 0 .747-.693 1.12-1.28.64-1.12 1.6-2.667 3.52-2.667z"/><rect fill="none" x="0" y="0" width="32" height="32"></rect></svg>