<svg id="default-team" width="32" height="32" viewBox="0 0 32 32" xmlns="http://www.w3.org/2000/svg"><path fill="currentColor" d="M0 16C0 7.163 7.163 0 16 0s16 7.163 16 16-7.163 16-16 16S0 24.837 0 16zm30 0c0-7.732-6.268-14-14-14S2 8.268 2 16s6.268 14 14 14 14-6.268 14-14zM12.12 9.2c-.514.828-.832 2.023-.81 3.045.02.84.077 1.86.506 3.33.388 1.334 1.004 2.212 1.83 2.61.88.426 3.274 1.24 4.385 1.24l.1-.002c1.07-.047 1.468-.693 1.73-1.12l.145-.226c.927-1.313 1.41-3.83 1.362-7.08-.03-1.763-1.012-3.013-2.92-3.715C17.95 7.098 17.264 7 16.577 7c-.638 0-1.28.086-1.78.267-.71.258-2.004.85-2.676 1.932zm9.457 14.336c.238-.282.253-.523.223-.675-.21-1.095-1.106-1.86-2.81-2.39-.007-.088-.01-.192-.02-.288-.232.072-.485.127-.783.14l-.156.004c-1.252 0-3.6-.795-4.63-1.26.005.395.014.738.025 1.032-2.18.53-4.245 1.72-3.893 3.585C9.77 24.943 16.275 25 16.34 25c2.766 0 4.623-.735 5.237-1.464zm5.417-9.962c-.02-1.323-.754-2.26-2.182-2.785-.303-.113-.834-.218-1.418-.218-.368 0-.754.054-1.12.163.004.083.008.166.01.248.036 2.41-.197 5.66-1.49 7.55.144.13.298.242.465.323.578.28 2.33.904 3.212.904h.074c.84-.038 1.146-.54 1.35-.868l.097-.155c.682-.966 1.038-2.8 1-5.163zm-1.535 6.9c-.247.1-.537.17-.88.186l-.108.002c-.973 0-2.566-.546-3.346-.876-.01.07-.35.305-.53.364 1.2.618 1.897 1.456 2.105 2.542.034.172.026.346 0 .52.296-.005.586-.007.862-.007 1.835 0 2.942-.208 3.287-.618.124-.148.174-.33.14-.508-.162-.838-.834-1.31-1.53-1.605zm-13.662-2.76c-.355-.513-.646-1.14-.864-1.89-.46-1.574-.52-2.662-.54-3.56-.01-.395.04-.807.11-1.218-.225-.113-.44-.21-.605-.27-.415-.15-.87-.204-1.294-.204-.584 0-1.114.105-1.418.217-1.43.523-2.163 1.46-2.183 2.784-.035 2.364.32 4.197 1.002 5.163l.098.155c.203.33.51.83 1.35.867h.073c.883 0 2.633-.625 3.21-.904.435-.21.785-.6 1.06-1.14zM11 20.03l-.126-.244c-.78.33-2.372.876-3.346.876l-.115-.003c-.34-.016-.628-.085-.873-.185-.697.295-1.37.768-1.53 1.604-.034.178.016.36.14.507.346.41 1.452.618 3.287.618h.145c.022-1.282.882-2.385 2.42-3.175z"/><rect fill="none" x="0" y="0" width="32" height="32"></rect></svg>