<svg id="default-offline" width="32" height="32" viewBox="0 0 32 32" xmlns="http://www.w3.org/2000/svg"><path fill="currentColor" d="M2.224 25.534C.846 24.094 0 22.144 0 20c0-2.998 1.648-5.61 4.086-6.98C4.03 12.687 4 12.346 4 12c0-3.314 2.686-6 6-6 .587 0 1.154.084 1.69.24C13.41 4.84 15.608 4 18 4c1.67 0 3.242.41 4.626 1.132l-1.502 1.502C20.162 6.224 19.106 6 18 6c-1.867 0-3.63.64-5.047 1.792l-.816.665-1.01-.296C10.768 8.056 10.388 8 10 8c-2.21 0-4 1.79-4 4 0 .23.02.46.058.682l.237 1.39-1.23.69C3.188 15.818 2 17.804 2 20c0 1.593.623 3.044 1.638 4.12l-1.414 1.414zM8.244 28h15.764C28.422 28 32 24.418 32 20c0-2.975-1.63-5.578-4.045-6.956-.125-1.314-.503-2.554-1.087-3.67l-1.5 1.5c.312.736.517 1.528.596 2.36l.098 1.033.902.514C28.826 15.844 30 17.82 30 20c0 3.314-2.683 6-5.992 6H10.243l-2 2zM.29 30.296c-.39.39-.39 1.022 0 1.412.39.39 1.022.39 1.412 0L31.708 1.704c.39-.39.39-1.022 0-1.412-.39-.39-1.022-.39-1.412 0L.292 30.296z"/><rect fill="none" x="0" y="0" width="32" height="32"></rect></svg>