<svg id="default-draw-annotate" width="32" height="32" viewBox="0 0 32 32" xmlns="http://www.w3.org/2000/svg"><path fill="currentColor" d="M12.684 23.163L19.1 29.58c-.17.64-.005 1.354.498 1.857.75.75 1.97.75 2.72 0 .75-.75.75-1.97 0-2.72-.504-.503-1.217-.67-1.858-.497l-3.435-3.435c3.56.882 7.408.293 10.58-1.768 1.11.685 2.587.546 3.55-.418 1.127-1.127 1.127-2.953 0-4.08-1.126-1.126-2.952-1.126-4.08 0-.807.808-1.035 1.977-.683 2.99-3.728 2.332-8.5 2.332-12.227 0 .35-1.013.123-2.182-.685-2.99-.808-.808-1.977-1.036-2.99-.685-2.332-3.727-2.332-8.5 0-12.227 1.013.352 2.182.124 2.99-.684 1.126-1.127 1.126-2.953 0-4.08C12.353-.28 10.527-.28 9.4.845c-.963.964-1.102 2.44-.417 3.552-2.06 3.17-2.65 7.02-1.768 10.58L3.78 11.54c.172-.64.006-1.354-.498-1.858-.75-.75-1.968-.75-2.72 0-.75.75-.75 1.97 0 2.72.504.503 1.217.67 1.86.498l6.415 6.416c-.512 1.072-.324 2.395.564 3.283.89.887 2.212 1.075 3.284.563zM10.76 19.88c.376-.376.985-.376 1.36 0 .376.375.376.984 0 1.36-.375.375-.984.375-1.36 0-.375-.376-.375-.985 0-1.36zm17.676 1.36c-.376-.376-.376-.985 0-1.36.375-.376.984-.376 1.36 0 .375.375.375.984 0 1.36-.376.375-.985.375-1.36 0zM10.76 3.563c-.375-.375-.375-.984 0-1.36.376-.375.985-.375 1.36 0 .376.376.376.985 0 1.36-.375.376-.984.376-1.36 0z"/><rect fill="none" x="0" y="0" width="32" height="32"></rect></svg>