<svg id="default-camera" width="32" height="32" viewBox="0 0 32 32" xmlns="http://www.w3.org/2000/svg"><path fill="currentColor" d="M25.28 10h3.728C30.66 10 32 11.342 32 12.994v12.012C32 26.658 30.656 28 29.008 28H2.992C1.34 28 0 26.658 0 25.006V12.994C0 11.342 1.344 10 2.992 10H6.72l.826-3.306C7.924 5.178 9.44 4 11.006 4h9.988c1.565 0 3.082 1.182 3.46 2.694L25.28 10zM2 12.994v12.012c0 .548.445.994.992.994h26.016c.544 0 .992-.447.992-.994V12.994c0-.548-.445-.994-.992-.994h-4.323c-.553 0-1.106-.428-1.238-.976l-.933-3.845C22.36 6.557 21.642 6 20.994 6h-9.988c-.65 0-1.364.555-1.52 1.18l-.933 3.844c-.13.54-.69.976-1.238.976H2.992c-.544 0-.992.447-.992.994zM23 17c0-3.866-3.134-7-7-7s-7 3.134-7 7 3.134 7 7 7 7-3.134 7-7zm-12 0c0-2.76 2.24-5 5-5s5 2.24 5 5-2.24 5-5 5-5-2.24-5-5zm5 2c1.105 0 2-.895 2-2s-.895-2-2-2-2 .895-2 2 .895 2 2 2z"/><rect fill="none" x="0" y="0" width="32" height="32"></rect></svg>