<svg id="default-risk-vunerability" width="32" height="32" viewBox="0 0 32 32" xmlns="http://www.w3.org/2000/svg"><path fill="currentColor" d="M31.447 19.91l-3.07-2.565c-.89-.743-.89-1.958 0-2.7l3.07-2.564c.888-.742.65-1.434-.528-1.54l-4.07-.36c-1.18-.106-1.813-1.056-1.408-2.11l2.16-5.64c.405-1.056-.09-1.44-1.1-.855L21.7 4.36c-1.01.585-2.315.265-2.9-.713L17.06.737c-.584-.978-1.55-.983-2.145-.012L13.3 3.36c-.597.97-1.967 1.385-3.045.92L7.412 3.058c-1.078-.464-1.908.074-1.844 1.196l.155 2.692c.064 1.122-.82 2.278-1.963 2.566l-2.746.694C-.13 10.494-.34 11.337.55 12.08l3.07 2.563c.89.742.89 1.957 0 2.7L.55 19.906c-.89.743-.654 1.46.52 1.594l3.725.424c1.175.135 1.83 1.117 1.456 2.184l-1.91 5.43c-.374 1.067.16 1.483 1.19.925l4.38-2.376c1.027-.557 2.41-.25 3.07.68l1.82 2.564c.66.935 1.652.884 2.203-.11l1.6-2.89c.55-.996 1.87-1.4 2.93-.905l3.084 1.445c1.062.496 1.878-.015 1.814-1.137l-.153-2.693c-.064-1.122.82-2.277 1.964-2.566l2.746-.693c1.145-.287 1.354-1.13.465-1.873l-.003.002zm-14.502-.616L17.535 6h-4.52l.622 13.294h3.308zM15.29 26c1.3 0 2.394-1.093 2.394-2.363 0-1.3-1.093-2.393-2.393-2.393-1.3 0-2.362 1.093-2.362 2.393 0 1.27 1.063 2.363 2.363 2.363z"/><rect fill="none" x="0" y="0" width="32" height="32"></rect></svg>