<svg id="default-camera-live" width="32" height="32" viewBox="0 0 32 32" xmlns="http://www.w3.org/2000/svg"><path fill="currentColor" d="M22 21.86l6.784 2.413c1.68.598 3.216-.477 3.216-2.267V9.994c0-1.79-1.527-2.868-3.216-2.267L22 10.14v-.146C22 8.342 20.66 7 19.01 7H2.99C1.345 7 0 8.343 0 9.994v12.012C0 23.658 1.34 25 2.99 25h16.02c1.646 0 2.99-1.343 2.99-2.994v-.145zM2.99 9h16.02c.545 0 .99.446.99.994v12.012c0 .546-.448.994-.99.994H2.99c-.545 0-.99-.446-.99-.994V9.994C2 9.448 2.448 9 2.99 9zm26.464.61c.387-.137.546-.025.546.384v12.012c0 .405-.163.52-.546.383l-8.12-2.888.666.942v-8.888l-.665.942 8.12-2.887"/><rect fill="none" x="0" y="0" width="32" height="32"></rect></svg>