<svg id="default-expire" width="32" height="32" viewBox="0 0 32 32" xmlns="http://www.w3.org/2000/svg"><path fill="currentColor" d="M0 16C0 7.163 7.163 0 16 0s16 7.163 16 16-7.163 16-16 16S0 24.837 0 16zm30 0c0-7.732-6.268-14-14-14S2 8.268 2 16s6.268 14 14 14 14-6.268 14-14zm-13-1.732V6.995c0-.54-.448-.995-1-.995-.556 0-1 .446-1 .995v7.273c-.598.345-1 .992-1 1.732 0 1.105.895 2 2 2 .18 0 .353-.024.518-.068l4.85 4.85c.38.38 1.02.387 1.41-.004.393-.393.392-1.022.003-1.41l-4.848-4.85c.044-.165.068-.34.068-.518 0-.74-.402-1.387-1-1.732z"/><rect fill="none" x="0" y="0" width="32" height="32"></rect></svg>