<svg id="default-tool-polygon" width="32" height="32" viewBox="0 0 32 32" xmlns="http://www.w3.org/2000/svg"><path fill="currentColor" d="M17.493 32h-.16c-.32-.053-.587-.213-.747-.533L.16 3.254C0 2.934-.055 2.56.105 2.24s.48-.532.853-.586L18.825 0c.32 0 .587.054.8.268s.373.48.373.747l.426 11.253 2.027-1.973c.427-.373 1.013-.373 1.44 0l7.68 6.987c.213.213.32.48.373.8 0 .32-.107.587-.32.8l-13.44 12.853c-.16.16-.373.267-.693.267zM2.827 3.627l14.933 25.6 11.627-11.093-6.133-5.547-3.04 2.88c-.32.267-.747.373-1.12.213s-.64-.533-.64-.96l-.48-12.533-15.147 1.44z"/><rect fill="none" x="0" y="0" width="32" height="32"></rect></svg>