<svg id="default-zoom-to-alt" width="32" height="32" viewBox="0 0 32 32" xmlns="http://www.w3.org/2000/svg"><path fill="currentColor" d="M25.186 23.755L31.7 30.27c.398.398.402 1.037.003 1.436-.395.395-1.043.39-1.434-.002l-6.645-6.643c-1.262.812-2.764 1.283-4.376 1.283-4.477 0-8.106-3.63-8.106-8.106s3.63-8.105 8.105-8.105c4.475 0 8.104 3.63 8.104 8.105 0 2.132-.823 4.07-2.168 5.518zm-4.924-15.65V2.018C20.262.91 19.36 0 18.245 0H2.017C.91 0 0 .903 0 2.017v16.23c0 1.107.903 2.017 2.017 2.017h7.1V18.24c-3.688 0-7.09.003-7.09.007 0 0 0-16.22-.01-16.22 0 0 16.22 0 16.22-.01v6.09h2.025zm5.065 10.132c0-3.357-2.72-6.08-6.078-6.08s-6.08 2.723-6.08 6.08c0 3.358 2.722 6.08 6.08 6.08 3.356 0 6.077-2.722 6.077-6.08z"/><rect fill="none" x="0" y="0" width="32" height="32"></rect></svg>