<svg id="default-legend" width="32" height="32" viewBox="0 0 32 32" xmlns="http://www.w3.org/2000/svg"><path fill="currentColor" d="M2.002 0h27.996C31.104 0 32 .897 32 2.005v19.99C32 23.102 31.11 24 29.998 24H2.002C.896 24 0 23.103 0 21.995V2.005C0 .898.89 0 2.002 0zM2 21.995C2 22 29.998 22 29.998 22 30.002 22 30 2.005 30 2.005 30 2 2.002 2 2.002 2 1.998 2 2 21.995 2 21.995zM7.033 4l3 6h-6l3-6zm0 16c1.657 0 3-1.343 3-3s-1.343-3-3-3-3 1.343-3 3 1.343 3 3 3zm13-2v2h-8v-2h8zm8-4v2h-16v-2h16zm-8-6v2h-8V8h8zm8-4v2h-16V4h16zM17 28.268V24h-2v4.268c-.598.345-1 .992-1 1.732 0 1.105.895 2 2 2s2-.895 2-2c0-.74-.402-1.387-1-1.732z"/><rect fill="none" x="0" y="0" width="32" height="32"></rect></svg>