<svg id="default-shape-star-outline" width="32" height="32" viewBox="0 0 32 32" xmlns="http://www.w3.org/2000/svg"><path fill="currentColor" d="M8.302 20.67l.01-.354-.206-.28-4.924-6.724 7.743-2.4.323-.1.19-.292 4.573-6.982 4.552 6.982.19.292.323.1 7.737 2.403-4.918 6.72-.205.28.008.355.22 8.48-7.6-2.842L16 26.19l-.317.118-7.595 2.84.214-8.478zm7.38 7.514l8.905 3.33L25.89 32l-.04-1.452-.26-9.933-.195.634 5.763-7.876.842-1.15-1.325-.412-9.065-2.81.513.393-5.342-8.197L16 0l-.78 1.198-5.343 8.197.513-.392-9.065 2.81-1.325.41.842 1.15 5.763 7.876-.196-.635-.26 9.933L6.11 32l1.303-.487 8.904-3.33h-.634z"/><rect fill="none" x="0" y="0" width="32" height="32"></rect></svg>