<svg id="default-edit-alt" width="32" height="32" viewBox="0 0 32 32" xmlns="http://www.w3.org/2000/svg"><path fill="currentColor" d="M30.4 1.6c-2.132-2.13-5.6-2.136-7.737 0l-8.653 8.654-9.397 9.397L.13 30.86c-.373.93.084 1.38 1.01 1.01l11.21-4.483L30.4 9.337c2.13-2.132 2.136-5.6 0-7.736zm-5.797 10.955c.353-.354.347-.932-.004-1.283l-3.872-3.87c-.355-.356-.937-.35-1.283-.005L7.83 19.012c-.352.353-.234.64.272.64h3.337c.5 0 .91.404.91.91v3.336c0 .503.292.617.638.27l11.615-11.613zm4.507-4.508c1.422-1.42 1.423-3.735 0-5.157-1.42-1.422-3.735-1.423-5.157 0l-1.928 1.928c-.36.36-.36.943-.008 1.293l3.872 3.873c.354.355.927.357 1.292-.008l1.928-1.928zM5.45 22.38c.187-.47.747-.858 1.25-.868l2.957-.06c.503-.01.9.387.89.9l-.07 2.927c-.01.507-.392 1.068-.866 1.26L6.75 27.69c-.467.188-.846-.07-.846-.57v-.113c0-.502-.41-.91-.913-.91h-.114c-.505 0-.764-.373-.574-.848l1.148-2.87z"/><rect fill="none" x="0" y="0" width="32" height="32"></rect></svg>