<svg id="default-location" width="32" height="32" viewBox="0 0 32 32" xmlns="http://www.w3.org/2000/svg"><path fill="currentColor" d="M23.333 7.333c0-4.04-3.24-7.333-7.213-7.333-4.027 0-7.44 3.36-7.44 7.333 0 3.04 4.92 10.093 7.333 13.227.693-.907 2.093-2.76 3.467-4.867 2.52-3.827 3.853-6.72 3.853-8.36zM16 10.56c-1.987 0-3.52-1.533-3.52-3.52 0-2 1.573-3.52 3.52-3.52s3.52 1.533 3.52 3.52c0 2-1.533 3.52-3.52 3.52zm13.867 9.427L27.734 7.974h-3.28c-.067.493-.213 1.027-.4 1.6h2.373l1.467 9.613h-6.4l-.28-4.013c-.773 1.24-1.573 2.427-2.307 3.453.187.413.293.88.293 1.373 0 1.813-1.387 3.2-3.2 3.2s-3.2-1.387-3.2-3.2c0-.507.107-.973.307-1.387-.733-1.027-1.533-2.227-2.307-3.467l-.293 4.053h-6.4l1.48-9.614H7.96c-.2-.573-.347-1.107-.413-1.6h-3.28L0 32.013h32l-2.133-12.027zM9.72 30.4H2.387l1.48-9.613H10.4L9.72 30.4zm2.613 0l.32-7.733c.773.973 1.973 1.6 3.347 1.6s2.573-.613 3.347-1.6l.32 7.733h-7.333zm9.947 0l-.68-9.613h6.533l1.48 9.613H22.28z"/><rect fill="none" x="0" y="0" width="32" height="32"></rect></svg>