<svg id="default-arrow-forward" width="32" height="32" viewBox="0 0 32 32" xmlns="http://www.w3.org/2000/svg"><path fill="currentColor" d="M24.833 14L14.273 3.173c-.378-.387-.38-1.027.004-1.42L15.7.292c.382-.392 1.007-.39 1.392.004l14.616 14.986c.393.402.386 1.036 0 1.432L17.092 31.7c-.393.402-1.01.397-1.393.003l-1.423-1.458c-.384-.393-.386-1.03-.004-1.42l10.56-10.827H.995c-.556 0-.996-.452-.996-1.01v-1.98C0 14.444.446 14 .996 14h23.837z"/><rect fill="none" x="0" y="0" width="32" height="32"></rect></svg>