<svg id="default-selection-circle" width="32" height="32" viewBox="0 0 32 32" xmlns="http://www.w3.org/2000/svg"><path fill="currentColor" d="M32 16.1v.9c-.1.9-.8 1.6-1.7 1.5-.9 0-1.6-.8-1.5-1.7.1-1 0-2-.2-3-.2-.9.4-1.7 1.3-1.9s1.7.4 1.9 1.3c.1 1 .2 1.9.2 2.9zm-1.9 7.2c0 .3-.1.5-.2.8-.6 1.1-1.4 2.1-2.2 3-.6.6-1.6.7-2.3.1s-.7-1.6-.1-2.3c.7-.7 1.3-1.5 1.8-2.4.4-.8 1.4-1 2.2-.6.5.3.8.8.8 1.4zm-1-15.9c0 .5-.2 1-.6 1.3-.7.5-1.7.4-2.3-.3-.6-.8-1.3-1.5-2.1-2.2-.7-.6-.8-1.6-.2-2.3s1.6-.8 2.3-.2c1 .8 1.8 1.7 2.6 2.7.2.3.3.7.3 1zm-6.6 22.2c0 .7-.4 1.3-1.1 1.5-1.2.4-2.4.7-3.6.9-.9.1-1.7-.5-1.8-1.4s.5-1.7 1.4-1.8c1-.1 2-.3 2.9-.7.8-.3 1.8.1 2.1 1 .1.1.1.3.1.5zM20.8 2v.4c-.2.9-1.1 1.4-1.9 1.2-1-.2-2-.3-3-.3-.9 0-1.6-.7-1.6-1.6S15 .1 15.9.1h.1c1.3 0 2.5.1 3.7.4.6.1 1.1.8 1.1 1.5zm-8.2 27.6c0 .2 0 .4-.1.5-.3.8-1.2 1.3-2.1 1-1.2-.4-2.3-1-3.3-1.7-.7-.5-1-1.5-.5-2.2s1.5-.9 2.2-.5c.8.5 1.7 1 2.7 1.3.7.4 1.1 1 1.1 1.6zM11 3.2c0 .6-.3 1.1-.9 1.4-.9.4-1.7 1-2.5 1.6-.7.6-1.7.5-2.3-.2s-.5-1.7.2-2.3c1-.8 2-1.5 3.1-2.1.8-.4 1.8-.1 2.2.7.1.4.2.6.2.9zM5 23.3c0 .6-.3 1.1-.8 1.4-.8.4-1.8.2-2.2-.6C1.4 23 .9 21.9.5 20.7c-.3-.8.2-1.7 1.1-2s1.8.2 2 1.1c.3 1 .7 1.9 1.2 2.7.1.3.2.5.2.8zM4 11c-.4.9-.7 1.9-.8 2.9-.1.9-1 1.5-1.9 1.3s-1.5-1-1.3-1.9c.2-1.2.6-2.4 1.1-3.6.4-.8 1.3-1.2 2.1-.8.6.3 1 .9 1 1.5 0 .2-.1.4-.2.6z"/><rect fill="none" x="0" y="0" width="32" height="32"></rect></svg>