<svg id="default-eraser" width="32" height="32" viewBox="0 0 32 32" xmlns="http://www.w3.org/2000/svg"><path fill="currentColor" d="M.86 25.353c-.475-.286-.86-.97-.86-1.52v-4.59c0-.553.38-.772.86-.484l7.423 4.46c.475.285 1.22.258 1.673-.07l21.23-15.31c.45-.323.814-.136.814.422v3.477c0 .555-.36 1.283-.787 1.612L9.93 29.725c-.435.335-1.168.376-1.647.09L.86 25.352zM22.016 2.285c.465-.29 1.258-.375 1.785-.185l7.256 2.615c.52.188.585.6.13.928L9.957 20.955c-.45.324-1.194.358-1.673.07L.86 16.562c-.475-.285-.482-.753-.02-1.042L22.017 2.285z"/><rect fill="none" x="0" y="0" width="32" height="32"></rect></svg>