<svg id="default-dashboard-rapids" width="32" height="32" viewBox="0 0 32 32" xmlns="http://www.w3.org/2000/svg"><path fill="currentColor" d="M30 16c0-7.732-6.268-14-14-14S2 8.268 2 16s6.268 14 14 14 14-6.268 14-14zM0 16C0 7.163 7.163 0 16 0s16 7.163 16 16-7.163 16-16 16S0 24.837 0 16zm16.82 8.648c5.42 0 9.18-3.423 9.18-8.635s-3.76-8.66-9.18-8.66H10v17.295h6.82zm0-3.24h-3.138V10.592h3.138c3.553 0 5.42 2.36 5.42 5.42 0 2.93-1.997 5.394-5.42 5.394z"/><rect fill="none" x="0" y="0" width="32" height="32"></rect></svg>