<svg id="default-paintbrush" width="32" height="32" viewBox="0 0 32 32" xmlns="http://www.w3.org/2000/svg"><path fill="currentColor" d="M31.455 3.406s-6.915 6.944-9.66 10.153-4.15 7.055-4.15 7.055l-5.312-5.668c6.13-2.665 7.895-5.386 7.895-5.386l7.895-8.39s1.87-2.025 3.244-.75.09 2.985.09 2.985zM13.65 28.554C9.625 33.734 0 31.538 0 31.538c2.478 0 4.42-4.447 5.56-9.195s5.15-5.65 5.15-5.65l5.384 5.67c0 3.302-2.442 6.192-2.442 6.192zm-3.27-9.31c-.07-.05-.162-.05-.23 0-.41.296-1.865 1.658-3.877 7.002 0 0-.573 1.54-1.122 2.595-.1.193.107.4.284.286 1.06-.684 3.114-2.28 4.6-5.114 0 0 1.87-3.654.344-4.767z"/><rect fill="none" x="0" y="0" width="32" height="32"></rect></svg>