<svg id="default-offline-server-enable" width="32" height="32" viewBox="0 0 32 32" xmlns="http://www.w3.org/2000/svg"><path fill="currentColor" d="M16 0C7.196 0 0 2.7 0 6.625v18.75C0 29.3 7.196 32 16 32s16-2.7 16-6.625V6.625C32 2.7 24.804 0 16 0zm14 25.375C30 27.662 23.765 30 16 30S2 27.662 2 25.375V6.625C2 4.338 8.235 2 16 2s14 2.338 14 4.625v18.75zm0-15.427c-2.735 2.046-7.993 3.302-14 3.302S4.735 11.994 2 9.948V6.625c0 2.287 6.235 4.625 14 4.625s14-2.338 14-4.625v3.323zm-10.467 12.73c.39-.39 1.024-.39 1.414 0 .39.39.39 1.024 0 1.414l-4.24 4.24c-.195.195-.45.293-.707.293-.256 0-.512-.098-.707-.293l-4.24-4.24c-.39-.39-.39-1.024 0-1.414.39-.39 1.024-.39 1.414 0L15 25.21v-9.585c0-.552.448-1 1-1s1 .448 1 1v9.586l2.533-2.532z"/><rect fill="none" x="0" y="0" width="32" height="32"></rect></svg>