<svg id="default-return-state" width="32" height="32" viewBox="0 0 32 32" xmlns="http://www.w3.org/2000/svg"><path fill="currentColor" d="M32 29.995C32 31.102 31.103 32 29.995 32h-19.99C8.898 32 8 31.103 8 29.995 8 28.893 8.893 28 9.998 28H28V13.994c0-1.1.888-1.994 2-1.994 1.105 0 2 .892 2 1.995v16zM2.005 0h19.99C23.102 0 24 .897 24 2.005v19.99C24 23.102 23.103 24 21.995 24H2.005C.898 24 0 23.103 0 21.995V2.005C0 .898.897 0 2.005 0zM4 4h16v16H4V4z"/><rect fill="none" x="0" y="0" width="32" height="32"></rect></svg>