<svg id="default-zoom-to" width="32" height="32" viewBox="0 0 32 32" xmlns="http://www.w3.org/2000/svg"><path fill="currentColor" d="M18.036 22.374C16.263 23.408 14.2 24 12 24 5.373 24 0 18.627 0 12S5.373 0 12 0s12 5.373 12 12c0 2.2-.592 4.262-1.625 6.034l9.022 9.022c.8.8.8 2.1.005 2.895l-1.45 1.45c-.798.798-2.093.797-2.895-.005l-9.02-9.02zM14 14h5.005C20.107 14 21 13.105 21 12c0-1.112-.893-2-1.995-2H14V4.995C14 3.893 13.105 3 12 3c-1.112 0-2 .893-2 1.995V10H4.995C3.893 10 3 10.895 3 12c0 1.112.893 2 1.995 2H10v5.005c0 1.102.895 1.995 2 1.995 1.112 0 2-.893 2-1.995V14z"/><rect fill="none" x="0" y="0" width="32" height="32"></rect></svg>