<svg id="default-text" width="32" height="32" viewBox="0 0 32 32" xmlns="http://www.w3.org/2000/svg"><path fill="currentColor" d="M1.546 0h28.51l.045 9.55h-1.363C28.29 6.14 27.01 3.837 24.9 2.635c-1.188-.663-2.96-1.025-5.32-1.087v24.924c0 1.742.305 2.898.914 3.468s1.877.855 3.803.855V32H7.417v-1.203c1.85 0 3.08-.29 3.69-.867s.912-1.73.912-3.457V1.548c-2.313.062-4.086.424-5.32 1.087-2.265 1.233-3.544 3.538-3.837 6.913H1.5l.045-9.55z"/><rect fill="none" x="0" y="0" width="32" height="32"></rect></svg>