<svg id="default-invisible" width="32" height="32" viewBox="0 0 32 32" xmlns="http://www.w3.org/2000/svg"><path fill="currentColor" d="M21.196 6.55c-1.63-.35-3.377-.54-5.196-.54C7.174 6.01.02 10.484.02 16c0 2.756 1.784 5.25 4.67 7.058l1.452-1.452C3.58 20.124 2.017 18.106 2.017 16c0-4.165 6.12-7.99 13.983-7.99 1.207 0 2.372.09 3.48.256l1.716-1.715zm6.114 2.392c2.886 1.807 4.672 4.302 4.672 7.058 0 5.517-7.155 9.99-15.982 9.99-1.82 0-3.567-.19-5.196-.54l1.715-1.716c1.108.167 2.274.257 3.48.257 7.863 0 13.984-3.825 13.984-7.99 0-2.106-1.564-4.124-4.126-5.606l1.452-1.452zm-9.77 1.264c-.49-.13-1.007-.2-1.54-.2-3.31 0-5.993 2.684-5.993 5.994 0 .533.07 1.05.2 1.54l7.334-7.334zm4.253 4.253c.13.49.2 1.007.2 1.54 0 3.31-2.683 5.994-5.993 5.994-.533 0-1.05-.07-1.54-.2l7.333-7.335zM31.705.31c.39.39.395 1.016.006 1.405L1.717 31.712C1.33 32.1.7 32.095.31 31.707l-.015-.017c-.39-.39-.395-1.016-.006-1.405L30.283.288C30.67-.1 31.3-.095 31.69.293l.015.017z"/><rect fill="none" x="0" y="0" width="32" height="32"></rect></svg>