<svg id="default-folder-open-alt" width="38" height="32" viewBox="0 0 38 32" xmlns="http://www.w3.org/2000/svg"><path fill="currentColor" d="M32 13V6.997C32 5.895 31.104 5 29.998 5H12V2.998C12 1.898 11.1 1 9.99 1H2.01C.9 1 0 1.894 0 2.998v26.005L.002 30h.02c-.044-.256-.01-.55.112-.86L2 24.41V6s.003-3 .01-3c0 0 7.99.003 7.99-.002V7h2s18 0 18-.003V13h2zM8.506 13H36.56c1.11 0 1.702.844 1.33 1.875l-5.156 14.25C32.36 30.16 31.166 31 30.062 31H1.395c-1.1 0-1.665-.832-1.26-1.86l5.632-14.28C6.172 13.83 7.39 13 8.507 13z"/><rect fill="none" x="0" y="0" width="38" height="32"></rect></svg>