<svg id="default-areabrief" width="32" height="32" viewBox="0 0 32 32" xmlns="http://www.w3.org/2000/svg"><path fill="currentColor" d="M27 14.993c0-.548.444-.993 1-.993.552 0 1 .445 1 .993v16.014c0 .548-.444.993-1 .993-.552 0-1-.445-1-.993V14.993zM22 20c.552 0 1 .456 1 1.002v9.996C23 31.55 22.556 32 22 32c-.552 0-1-.456-1-1.002v-9.996c0-.553.444-1.002 1-1.002zM16 0c.552 0 1 .452 1 .993v30.014c0 .55-.444.993-1 .993-.552 0-1-.452-1-.993V.993c0-.55.444-.993 1-.993zm-6 16c.552 0 1 .445 1 1v14c0 .552-.444 1-1 1-.552 0-1-.445-1-1V17c0-.552.444-1 1-1zm-6-6c.552 0 1 .44 1 1.002v19.996C5 31.55 4.556 32 4 32c-.552 0-1-.44-1-1.002V11.002C3 10.45 3.444 10 4 10z"/><rect fill="none" x="0" y="0" width="32" height="32"></rect></svg>