<svg id="default-animated" width="32" height="32" viewBox="0 0 32 32" xmlns="http://www.w3.org/2000/svg"><path fill="currentColor" d="M0 16C0 7.163 7.163 0 16 0s16 7.163 16 16-7.163 16-16 16S0 24.837 0 16zm30 0c0-7.732-6.268-14-14-14S2 8.268 2 16s6.268 14 14 14 14-6.268 14-14zm-6.763-.693L11.88 8.244c-.42-.268-.777-.315-1.07-.142-.294.174-.44.52-.44 1.044v13.71c0 .522.146.87.44 1.042.293.173.65.126 1.07-.14l11.357-7.08.2-.193s.198-.292.198-.493c0-.2-.066-.364-.2-.493l-.198-.192z"/><rect fill="none" x="0" y="0" width="32" height="32"></rect></svg>