<svg id="default-menu-main" width="32" height="32" viewBox="0 0 32 32" xmlns="http://www.w3.org/2000/svg"><path fill="currentColor" d="M0 1.998C0 .895.887 0 1.998 0h4.004C7.105 0 8 .887 8 1.998v4.004C8 7.105 7.113 8 6.002 8H1.998C.895 8 0 7.113 0 6.002V1.998zm12 0C12 .895 12.887 0 13.998 0h4.004C19.105 0 20 .887 20 1.998v4.004C20 7.105 19.113 8 18.002 8h-4.004C12.895 8 12 7.113 12 6.002V1.998zm12 0C24 .895 24.887 0 25.998 0h4.004C31.105 0 32 .887 32 1.998v4.004C32 7.105 31.113 8 30.002 8h-4.004C24.895 8 24 7.113 24 6.002V1.998zm-24 12C0 12.895.887 12 1.998 12h4.004C7.105 12 8 12.887 8 13.998v4.004C8 19.105 7.113 20 6.002 20H1.998C.895 20 0 19.113 0 18.002v-4.004zm12 0c0-1.103.887-1.998 1.998-1.998h4.004c1.103 0 1.998.887 1.998 1.998v4.004C20 19.105 19.113 20 18.002 20h-4.004C12.895 20 12 19.113 12 18.002v-4.004zm12 0c0-1.103.887-1.998 1.998-1.998h4.004c1.103 0 1.998.887 1.998 1.998v4.004C32 19.105 31.113 20 30.002 20h-4.004C24.895 20 24 19.113 24 18.002v-4.004zm-24 12C0 24.895.887 24 1.998 24h4.004C7.105 24 8 24.887 8 25.998v4.004C8 31.105 7.113 32 6.002 32H1.998C.895 32 0 31.113 0 30.002v-4.004zm12 0c0-1.103.887-1.998 1.998-1.998h4.004c1.103 0 1.998.887 1.998 1.998v4.004C20 31.105 19.113 32 18.002 32h-4.004C12.895 32 12 31.113 12 30.002v-4.004zm12 0c0-1.103.887-1.998 1.998-1.998h4.004c1.103 0 1.998.887 1.998 1.998v4.004C32 31.105 31.113 32 30.002 32h-4.004C24.895 32 24 31.113 24 30.002v-4.004z"/><rect fill="none" x="0" y="0" width="32" height="32"></rect></svg>