<svg id="default-offline-server-complete" width="32" height="32" viewBox="0 0 32 32" xmlns="http://www.w3.org/2000/svg"><path fill="currentColor" d="M16 0C7.196 0 0 2.7 0 6.625v18.75C0 29.3 7.196 32 16 32s16-2.7 16-6.625V6.625C32 2.7 24.804 0 16 0zm-2.554 25.195l9.113-9.275c.386-.393 1.013-.393 1.4 0 .387.394.387 1.033 0 1.427l-9.808 9.983-.005-.005c-.002 0-.003.003-.005.005-.387.393-1.014.393-1.4 0L8.54 23.054c-.387-.394-.387-1.033 0-1.426.387-.394 1.014-.394 1.4 0l3.506 3.567zM0 6.625C0 2.7 7.196 0 16 0s16 2.7 16 6.625c0 3.926-7.196 6.625-16 6.625S0 10.55 0 6.625zm30 0C30 4.338 23.765 2 16 2S2 4.338 2 6.625s6.235 4.625 14 4.625 14-2.338 14-4.625z"/><rect fill="none" x="0" y="0" width="32" height="32"></rect></svg>