<svg id="default-gear" width="32" height="32" viewBox="0 0 32 32" xmlns="http://www.w3.org/2000/svg"><path fill="currentColor" d="M17.99 3.808C17.896 2.788 17.035 2 16 2s-1.895.79-1.99 1.808l-.124 1.314-1.256.403c-.57.183-1.12.412-1.652.685l-1.174.604-1.017-.842C8 5.318 6.832 5.37 6.1 6.102c-.73.73-.782 1.897-.128 2.685l.842 1.017-.604 1.174c-.273.53-.502 1.083-.685 1.652l-.403 1.256-1.314.123C2.788 14.104 2 14.965 2 16s.79 1.895 1.808 1.99l1.314.124.403 1.256c.183.57.412 1.12.685 1.652l.604 1.174-.842 1.017c-.654.788-.603 1.955.13 2.686.73.73 1.897.782 2.685.128l1.017-.842 1.174.604c.53.273 1.083.502 1.652.685l1.256.403.123 1.314C14.104 29.212 14.965 30 16 30s1.895-.79 1.99-1.808l.124-1.314 1.256-.403c.57-.183 1.12-.412 1.652-.685l1.174-.604 1.017.842c.788.654 1.955.603 2.686-.13.73-.73.782-1.897.128-2.685l-.842-1.017.604-1.174c.273-.53.502-1.083.685-1.652l.403-1.256 1.314-.123C29.212 17.896 30 17.035 30 16s-.79-1.895-1.808-1.99l-1.314-.124-.403-1.256c-.183-.57-.412-1.12-.685-1.652l-.604-1.174.842-1.017c.654-.788.603-1.955-.13-2.686-.73-.73-1.897-.782-2.685-.128l-1.017.842-1.174-.604c-.53-.273-1.083-.502-1.652-.685l-1.256-.403-.123-1.314zm3.947.624c1.57-1.303 3.905-1.218 5.377.254s1.557 3.806.254 5.377c.32.624.593 1.277.81 1.955C30.41 12.208 32 13.918 32 16c0 2.08-1.59 3.792-3.62 3.982-.22.678-.49 1.33-.812 1.955 1.303 1.57 1.218 3.905-.254 5.377s-3.806 1.557-5.377.254c-.624.32-1.277.593-1.955.81C19.792 30.41 18.082 32 16 32c-2.08 0-3.792-1.59-3.982-3.62-.678-.22-1.33-.49-1.955-.812-1.57 1.303-3.905 1.218-5.377-.254s-1.557-3.806-.254-5.377c-.32-.624-.593-1.277-.81-1.955C1.59 19.792 0 18.082 0 16c0-2.08 1.59-3.792 3.62-3.982.22-.678.49-1.33.812-1.955-1.303-1.57-1.218-3.905.254-5.377s3.806-1.557 5.377-.254c.624-.32 1.277-.593 1.955-.81C12.208 1.59 13.918 0 16 0c2.08 0 3.792 1.59 3.982 3.62.678.22 1.33.49 1.955.812zM22 16c0-3.314-2.686-6-6-6s-6 2.686-6 6 2.686 6 6 6 6-2.686 6-6zm-10 0c0-2.21 1.79-4 4-4s4 1.79 4 4-1.79 4-4 4-4-1.79-4-4z"/><rect fill="none" x="0" y="0" width="32" height="32"></rect></svg>