<svg id="default-link-alt" width="32" height="32" viewBox="0 0 32 32" xmlns="http://www.w3.org/2000/svg"><path fill="currentColor" d="M20 8.055V6.99C20 3.13 16.866 0 13 0 9.142 0 6 3.13 6 6.99v8.02c0 2.79 1.635 5.196 4 6.317v-2.324c-1.215-.91-2-2.36-2-3.994V6.99C8 4.24 10.243 2 13 2c2.763 0 5 2.234 5 4.99v1.065c.328-.036.662-.055 1-.055.338 0 .672.02 1 .055zM19 10c3.866 0 7 3.13 7 6.99v8.02c0 3.86-3.142 6.99-7 6.99-3.866 0-7-3.13-7-6.99v-8.02c0-3.86 3.142-6.99 7-6.99zm-5 15.01c0 2.756 2.237 4.99 5 4.99 2.757 0 5-2.238 5-4.99v-8.02c0-2.756-2.237-4.99-5-4.99-2.757 0-5 2.238-5 4.99v8.02zm6-10.84v.84c0 2.786-1.638 5.193-4 6.316V19c1.214-.912 2-2.36 2-3.99v-.84c.313-.11.65-.17 1-.17s.687.06 1 .17z"/><rect fill="none" x="0" y="0" width="32" height="32"></rect></svg>