<svg id="default-hazards-alt" width="32" height="32" viewBox="0 0 32 32" xmlns="http://www.w3.org/2000/svg"><path fill="currentColor" d="M0 16C0 7.163 7.163 0 16 0s16 7.163 16 16-7.163 16-16 16S0 24.837 0 16zm30 0c0-7.732-6.268-14-14-14S2 8.268 2 16s6.268 14 14 14 14-6.268 14-14zM17.41 4.683l9.907 9.906c.78.778.78 2.04 0 2.82l-9.906 9.907c-.778.78-2.04.78-2.82 0L4.682 17.41c-.78-.778-.78-2.04 0-2.82l9.906-9.907c.778-.78 2.04-.78 2.82 0zM20.82 21V11h-3.028v3.538h-3.584V11H11.18v10h3.028v-3.823h3.584V21h3.028z"/><rect fill="none" x="0" y="0" width="32" height="32"></rect></svg>