<svg id="default-menu-action" width="32" height="32" viewBox="0 0 32 32" xmlns="http://www.w3.org/2000/svg"><path fill="currentColor" d="M0 13.998C0 12.895.887 12 1.998 12h4.004C7.105 12 8 12.887 8 13.998v4.004C8 19.105 7.113 20 6.002 20H1.998C.895 20 0 19.113 0 18.002v-4.004zm12 0c0-1.103.887-1.998 1.998-1.998h4.004c1.103 0 1.998.887 1.998 1.998v4.004C20 19.105 19.113 20 18.002 20h-4.004C12.895 20 12 19.113 12 18.002v-4.004zm12 0c0-1.103.887-1.998 1.998-1.998h4.004c1.103 0 1.998.887 1.998 1.998v4.004C32 19.105 31.113 20 30.002 20h-4.004C24.895 20 24 19.113 24 18.002v-4.004z"/><rect fill="none" x="0" y="0" width="32" height="32"></rect></svg>