<svg id="default-global" width="32" height="32" viewBox="0 0 32 32" xmlns="http://www.w3.org/2000/svg"><path fill="currentColor" d="M10.876 16l12.716-7.342C24.485 9.49 25.682 10 27 10c2.76 0 5-2.24 5-5s-2.24-5-5-5c-2.748 0-4.978 2.216-5 4.958l-13.3 7.68C7.786 11.63 6.467 11 5 11c-2.76 0-5 2.24-5 5s2.24 5 5 5c1.467 0 2.786-.63 3.7-1.637l13.3 7.68c.022 2.74 2.252 4.957 5 4.957 2.76 0 5-2.24 5-5s-2.24-5-5-5c-1.317 0-2.515.51-3.408 1.342L10.876 16z"/><rect fill="none" x="0" y="0" width="32" height="32"></rect></svg>