<svg id="default-documents" width="32" height="32" viewBox="0 0 32 32" xmlns="http://www.w3.org/2000/svg"><path fill="currentColor" d="M8 2.992h2c0-.55.443-.992.99-.992H20v7c0 1.663 1.34 3 3 3h7v17.008c0 .55-.443.992-.99.992H10.99c-.544 0-.99-.447-.99-.992V2.992H8v26.016C8 30.656 9.34 32 10.99 32h18.02c1.65 0 2.99-1.34 2.99-2.992V8.588l-.293-.292L23.704.293 23.41 0H10.99C9.34 0 8 1.34 8 2.992zm-8 4C0 6.445.444 6 1 6c.552 0 1 .455 1 .992v18.016c0 .548-.444.992-1 .992-.552 0-1-.455-1-.992V6.992zM4 5c0-.552.444-1 1-1 .552 0 1 .447 1 1v22c0 .552-.444 1-1 1-.552 0-1-.447-1-1V5zm18 4.003c0 .55.453.997.997.997H30l-7.59-8H22v7.003z"/><rect fill="none" x="0" y="0" width="32" height="32"></rect></svg>