<svg id="default-tool-area-circle" width="32" height="32" viewBox="0 0 32 32" xmlns="http://www.w3.org/2000/svg"><path fill="currentColor" d="M11.135 22.28l.622-.623 9.9-9.9.622-.622.684.686c.315.316.603.21.658-.22l.372-2.914c.054-.428-.25-.734-.68-.68l-2.915.372c-.43.054-.53.35-.22.658l.685.685-.622.623-9.9 9.9-.622.622-.684-.686c-.315-.316-.603-.21-.658.22l-.372 2.914c-.054.428.25.734.68.68l2.915-.372c.43-.054.53-.35.22-.658l-.685-.685zM0 16C0 7.163 7.163 0 16 0s16 7.163 16 16-7.163 16-16 16S0 24.837 0 16zm30 0c0-7.732-6.268-14-14-14S2 8.268 2 16s6.268 14 14 14 14-6.268 14-14z"/><rect fill="none" x="0" y="0" width="32" height="32"></rect></svg>