<svg id="default-tv-feeds" width="32" height="32" viewBox="0 0 32 32" xmlns="http://www.w3.org/2000/svg"><path fill="currentColor" d="M14.5 8L2 8C0.9 8 0 8.9 0 10L0 26C0 27.1 0.9 28 2 28L30 28C31.1 28 32 27.1 32 26L32 10C32 8.9 31.1 8 30 8L17.4 8 17.4 7.9 21.4 3.9C21.6 4 21.8 4 22 4 23.1 4 24 3.1 24 2 24 0.9 23.1 0 22 0 20.9 0 20 0.9 20 2 20 2.2 20 2.3 20 2.4L20 2.4 15.9 6.5 11.9 2.5C12 2.4 12 2.2 12 2 12 0.9 11.1 0 10 0 8.9 0 8 0.9 8 2 8 3.1 8.9 4 10 4 10.2 4 10.4 4 10.5 3.9L14.5 7.9 14.5 8 14.5 8ZM24 26C24 26 24 10 24 10 24 10 2 10 2 10 2 10 2 26 2 26 2 26 24 26 24 26L24 26ZM17 30L17 28 15 28 15 30 11 30C10.5 30 10 30.4 10 31 10 31.6 10.4 32 11 32L21 32C21.5 32 22 31.6 22 31 22 30.4 21.6 30 21 30L17 30 17 30ZM28 16C29.1 16 30 15.1 30 14 30 12.9 29.1 12 28 12 26.9 12 26 12.9 26 14 26 15.1 26.9 16 28 16L28 16Z"/><rect fill="none" x="0" y="0" width="32" height="32"></rect></svg>