<svg id="default-tree" width="32" height="32" viewBox="0 0 32 32" xmlns="http://www.w3.org/2000/svg"><path fill="currentColor" d="M5 15V8h1.002C7.112 8 8 7.105 8 6.002V1.998C8 .888 7.105 0 6.002 0H1.998C.888 0 0 .895 0 1.998v4.004C0 7.112.895 8 1.998 8H3v20.007c0 .273.112.522.293.702.183.18.432.29.707.29h3c.556 0 1-.448 1-1 0-.556-.448-1-1-1H5V17h2c.556 0 1-.448 1-1 0-.556-.448-1-1-1H5zM30.998 3C31.55 3 32 3.444 32 4c0 .552-.44 1-1.002 1H11.002C10.45 5 10 4.556 10 4c0-.552.44-1 1.002-1h19.996zm-19 21h4.004c1.103 0 1.998.887 1.998 1.998v4.004C18 31.105 17.113 32 16.002 32h-4.004C10.895 32 10 31.113 10 30.002v-4.004c0-1.103.887-1.998 1.998-1.998zm19 3c.553 0 1.002.444 1.002 1 0 .552-.456 1-1.002 1h-9.996C20.45 29 20 28.556 20 28c0-.552.456-1 1.002-1h9.996zm-19-15h4.004c1.103 0 1.998.887 1.998 1.998v4.004C18 19.105 17.113 20 16.002 20h-4.004C10.895 20 10 19.113 10 18.002v-4.004c0-1.103.887-1.998 1.998-1.998zm19 3c.553 0 1.002.444 1.002 1 0 .552-.456 1-1.002 1h-9.996C20.45 17 20 16.556 20 16c0-.552.456-1 1.002-1h9.996zM12 18.002c0 .003 4.002-.002 4.002-.002.003 0-.002-4.002-.002-4.002 0-.003-4.002.002-4.002.002-.003 0 .002 4.002.002 4.002zm0 12c0 .003 4.002-.002 4.002-.002.003 0-.002-4.002-.002-4.002 0-.003-4.002.002-4.002.002-.003 0 .002 4.002.002 4.002z"/><rect fill="none" x="0" y="0" width="32" height="32"></rect></svg>