<svg id="default-historical-hazards" width="32" height="32" viewBox="0 0 32 32" xmlns="http://www.w3.org/2000/svg"><path fill="currentColor" d="M0 16C0 7.163 7.163 0 16 0s16 7.163 16 16-7.163 16-16 16S0 24.837 0 16zm30 0c0-7.732-6.268-14-14-14S2 8.268 2 16s6.268 14 14 14 14-6.268 14-14zM17.41 4.683l9.907 9.906c.78.778.78 2.04 0 2.82l-9.906 9.907c-.778.78-2.04.78-2.82 0L4.682 17.41c-.78-.778-.78-2.04 0-2.82l9.906-9.907c.778-.78 2.04-.78 2.82 0zM22 16c0-3.314-2.686-6-6-6s-6 2.686-6 6 2.686 6 6 6 6-2.686 6-6zm-2.59 3.412l-.516.504c-.116.112-.302.112-.403 0l-2.788-2.714c-.116-.112-.202-.322-.202-.475V12.28c0-.154.13-.28.288-.28h.733c.16 0 .29.126.29.28v3.915c0 .155.085.364.2.476l2.403 2.336c.116.113.116.294 0 .406h-.002z"/><rect fill="none" x="0" y="0" width="32" height="32"></rect></svg>