<svg id="default-pan" width="32" height="32" viewBox="0 0 32 32" xmlns="http://www.w3.org/2000/svg"><path fill="currentColor" d="M14.012 8.024h-3.457c-.546 0-.72-.354-.383-.8L15.395.333c.335-.44.874-.445 1.21 0l5.224 6.893c.334.44.162.8-.384.8H17.99v2.986c0 .558-.44 1.01-1.003 1.01h-1.97c-.556 0-1.005-.443-1.005-1.01V8.025zm0 15.952h-3.457c-.546 0-.72.354-.383.8l5.223 6.892c.335.44.874.445 1.21 0l5.224-6.893c.334-.44.162-.8-.384-.8H17.99V20.99c0-.558-.44-1.01-1.003-1.01h-1.97c-.556 0-1.005.443-1.005 1.01v2.986zm9.964-9.964v-3.457c0-.546.354-.72.8-.383l6.892 5.223c.44.335.445.874 0 1.21l-6.893 5.224c-.44.334-.8.162-.8-.384V17.99H20.99c-.558 0-1.01-.44-1.01-1.003v-1.97c0-.556.443-1.005 1.01-1.005h2.986zm-15.952 0v-3.457c0-.546-.354-.72-.8-.383L.333 15.395c-.44.335-.445.874 0 1.21l6.893 5.224c.44.334.8.162.8-.384V17.99h2.986c.558 0 1.01-.44 1.01-1.003v-1.97c0-.556-.443-1.005-1.01-1.005H8.025z"/><rect fill="none" x="0" y="0" width="32" height="32"></rect></svg>