<svg id="default-add" width="32" height="32" viewBox="0 0 32 32" xmlns="http://www.w3.org/2000/svg"><path fill="currentColor" d="M15 17H6.002C5.44 17 5 16.552 5 16c0-.556.45-1 1.002-1H15V6.002C15 5.44 15.448 5 16 5c.556 0 1 .45 1 1.002V15h8.998c.563 0 1.002.448 1.002 1 0 .556-.45 1-1.002 1H17v8.998C17 26.56 16.552 27 16 27c-.556 0-1-.45-1-1.002V17zM0 16C0 7.163 7.163 0 16 0s16 7.163 16 16-7.163 16-16 16S0 24.837 0 16zm30 0c0-7.732-6.268-14-14-14S2 8.268 2 16s6.268 14 14 14 14-6.268 14-14z"/><rect fill="none" x="0" y="0" width="32" height="32"></rect></svg>