<svg id="default-layers" width="32" height="32" viewBox="0 0 32 32" xmlns="http://www.w3.org/2000/svg"><path fill="currentColor" d="M0 31c0-.552.452-1 .993-1h30.014c.55 0 .993.444.993 1 0 .552-.452 1-.993 1H.993C.443 32 0 31.556 0 31zm0-4c0-.552.452-1 .993-1h30.014c.55 0 .993.444.993 1 0 .552-.452 1-.993 1H.993C.443 28 0 27.556 0 27zm0-4c0-.552.452-1 .993-1h30.014c.55 0 .993.444.993 1 0 .552-.452 1-.993 1H.993C.443 24 0 23.556 0 23zM25 0c.552 0 1.087.393 1.196.88l5.608 16.24c.108.486-.256.88-.797.88H.993c-.55 0-.906-.393-.797-.88L5.804.88C5.912.394 6.447 0 7 0h20-2zm-1.992 2c.548 0 1.075.39 1.175.855l4.634 12.29c.1.472-.268.855-.82.855H4.003c-.554 0-.92-.39-.82-.855l4.634-12.29c.1-.472.638-.855 1.175-.855h16.016-2z"/><rect fill="none" x="0" y="0" width="32" height="32"></rect></svg>