<svg id="default-tool-buffer" width="32" height="32" viewBox="0 0 32 32" xmlns="http://www.w3.org/2000/svg"><path fill="currentColor" d="M16.032 0C7.24 0 0 7.176 0 15.968S7.24 32 16.032 32s16.032-7.176 16.032-16.032S24.824 0 16.032 0zm0 29.867c-7.628 0-13.9-6.27-13.9-13.9s6.272-13.833 13.9-13.833c3.426 0 6.594 1.293 8.986 3.362l-8.47 8.404h-.516c-1.164 0-2.133.97-2.133 2.133s.97 2.133 2.132 2.133 2.133-.97 2.133-2.133c0-.194-.065-.388-.065-.517l8.47-8.533c2.068 2.392 3.36 5.624 3.36 8.986 0 7.627-6.27 13.898-13.898 13.898z"/><rect fill="none" x="0" y="0" width="32" height="32"></rect></svg>