<svg id="default-zoom-extend" width="32" height="32" viewBox="0 0 32 32" xmlns="http://www.w3.org/2000/svg"><path fill="currentColor" d="M30.05 28.673v-3.497c0-.537.434-.972.976-.972.538 0 .974.442.974.972v5.852c0 .268-.108.51-.283.686l-.005.002c-.176.175-.42.284-.684.284h-5.852c-.537 0-.972-.433-.972-.974 0-.54.442-.975.972-.975h3.497l-8.386-8.385c-.383-.383-.38-.998 0-1.38.382-.382.997-.38 1.378.002l8.386 8.386zm0-25.346v3.497c0 .537.434.972.976.972.538 0 .974-.442.974-.972V.972c0-.268-.108-.51-.283-.686l-.005-.002C31.536.11 31.292 0 31.028 0h-5.852c-.537 0-.972.433-.972.974 0 .54.442.975.972.975h3.497l-8.386 8.385c-.383.383-.38.998 0 1.38.382.382.997.38 1.378-.002l8.386-8.386zM1.95 28.673v-3.497c0-.537-.434-.972-.976-.972-.538 0-.974.442-.974.972v5.852c0 .268.108.51.283.686l.005.002c.176.175.42.284.684.284h5.852c.537 0 .972-.433.972-.974 0-.54-.442-.975-.972-.975H3.327l8.386-8.385c.383-.383.38-.998 0-1.38-.382-.382-.997-.38-1.378.002L1.95 28.673zm0-25.346v3.497c0 .537-.434.972-.976.972-.538 0-.974-.442-.974-.972V.972C0 .704.108.462.283.286L.288.284C.464.11.708 0 .972 0h5.852c.537 0 .972.433.972.974 0 .54-.442.975-.972.975H3.327l8.386 8.385c.383.383.38.998 0 1.38-.382.382-.997.38-1.378-.002L1.95 3.327z"/><rect fill="none" x="0" y="0" width="32" height="32"></rect></svg>