<svg id="default-comment" width="32" height="32" viewBox="0 0 32 32" xmlns="http://www.w3.org/2000/svg"><path fill="currentColor" d="M32 19.462V4.986C32 2.23 29.763 0 27 0H5C2.235 0 0 2.23 0 4.986v14.476c0 2.757 2.237 4.986 5 4.986h12.993c.003 0 .007 5.578.007 5.578 0 2.05 1.748 2.667 3.03 1.067l2.808-3.51 2.807-3.51-.78.375H27c2.762 0 4.998-2.23 4.998-4.986zm-5.568 2.99h-.057c-.548 0-1.275.353-1.62.784l-2.48 3.1c-2.105 2.634-2.105 2.634-2.807 3.51-.096.12-.17.19-.202.208.085-.05.243-.075.434-.008.19.067.294.185.33.274-.014-.034-.03-.137-.03-.294V24.45c0-1.1-.9-1.998-2.007-1.998H5c-1.66 0-3-1.336-3-2.99V4.986c0-1.653 1.34-2.99 3-2.99h22c1.66 0 3 1.336 3 2.99v14.476c0 1.653-1.34 2.99-3 2.99h-.568z"/><rect fill="none" x="0" y="0" width="32" height="32"></rect></svg>