<svg id="marker-number-2" width="23" height="32" viewBox="0 0 23 32" xmlns="http://www.w3.org/2000/svg"><path fill="currentColor" d="M0 11.467C0 5.12 5.346 0 11.425 0s11.11 5.12 11.11 11.467C22.536 17.654 11.27 32 11.27 32S0 17.493 0 11.467zM15.448 16v-2.503h-3.033c2.222-1.493 2.95-2.56 2.95-3.854 0-1.906-1.58-3.27-3.998-3.27-1.3 0-2.865.44-3.94 1.606l1.536 1.905c.713-.612 1.467-.98 2.46-.98.6 0 1.076.283 1.076.74 0 .71-.406 1.066-4.67 4.123V16h7.617z"/><rect fill="none" x="0" y="0" width="23" height="32"></rect></svg>