<svg id="marker-number-10" width="23" height="32" viewBox="0 0 23 32" xmlns="http://www.w3.org/2000/svg"><path fill="currentColor" d="M0 11.467c0-6.347 5.346-11.467 11.425-11.467s11.111 5.12 11.111 11.467c0 6.187-11.268 20.533-11.268 20.533s-11.268-14.507-11.268-20.533v0zM9.525 16v-9.486h-2.432l-3.564 3.556 1.593 1.692 1.579-1.593v5.831h2.823zM15.167 16.171c2.781 0 4.137-2.332 4.137-4.907s-1.356-4.892-4.137-4.892c-2.781 0-4.137 2.318-4.137 4.892s1.356 4.907 4.137 4.907zM15.167 13.639c-0.894 0-1.3-0.768-1.3-2.375s0.405-2.361 1.3-2.361c0.894 0 1.3 0.754 1.3 2.361s-0.405 2.375-1.3 2.375z"/><rect fill="none" x="0" y="0" width="23" height="32"></rect></svg>