<svg id="marker-number-5" width="23" height="32" viewBox="0 0 23 32" xmlns="http://www.w3.org/2000/svg"><path fill="currentColor" d="M0 11.467C0 5.12 5.346 0 11.425 0s11.11 5.12 11.11 11.467C22.536 17.654 11.27 32 11.27 32S0 17.493 0 11.467zm10.64 4.704c2.614 0 4.152-1.35 4.152-3.44 0-1.893-1.412-3.1-3.005-3.1-.783 0-1.495.283-1.943.724V9.017h4.304V6.514H7.02v5.76l1.944.455c.475-.456 1.02-.655 1.733-.655.866 0 1.23.356 1.23.782 0 .398-.377.782-1.314.782-.81 0-1.72-.285-2.362-.826l-1.508 2.02c.908.84 2.236 1.337 3.9 1.337z"/><rect fill="none" x="0" y="0" width="23" height="32"></rect></svg>