<svg id="marker-letter-j" width="23" height="32" viewBox="0 0 23 32" xmlns="http://www.w3.org/2000/svg"><path fill="currentColor" d="M0 11.467c0-6.347 5.346-11.467 11.425-11.467s11.111 5.12 11.111 11.467c0 6.187-11.268 20.533-11.268 20.533s-11.268-14.507-11.268-20.533v0zM10.46 15.879c2.166 0 3.606-1.124 3.606-3.556v-6.101h-2.823v6.059c0 0.668-0.419 1.067-1.034 1.067-0.475 0-0.894-0.213-1.202-0.427l-1.146 2.19c0.727 0.569 1.691 0.768 2.599 0.768z"/><rect fill="none" x="0" y="0" width="23" height="32"></rect></svg>