<svg id="marker-number-3" width="23" height="32" viewBox="0 0 23 32" xmlns="http://www.w3.org/2000/svg"><path fill="currentColor" d="M0 11.467C0 5.12 5.346 0 11.425 0s11.11 5.12 11.11 11.467C22.536 17.654 11.27 32 11.27 32S0 17.493 0 11.467zm11.012 4.554c2.418 0 4.053-1.15 4.053-2.843 0-1.308-1.174-2.105-2.208-2.22 1.188-.198 2.054-1.094 2.054-2.104 0-1.564-1.313-2.63-3.884-2.63-1.817 0-3.09.64-3.913 1.563L8.44 9.578c.644-.54 1.482-.825 2.28-.825.81 0 1.383.17 1.383.612 0 .3-.39.47-1.286.47-.335 0-1.174 0-1.356-.015v2.546c.14-.014.95-.028 1.357-.028 1.244 0 1.44.185 1.44.512 0 .34-.434.64-1.357.64-.713 0-1.803-.27-2.53-.91l-1.384 1.963c.783.853 2.18 1.48 4.025 1.48z"/><rect fill="none" x="0" y="0" width="23" height="32"></rect></svg>