<svg id="marker-number-6" width="23" height="32" viewBox="0 0 23 32" xmlns="http://www.w3.org/2000/svg"><path fill="currentColor" d="M0 11.467C0 5.12 5.346 0 11.425 0s11.11 5.12 11.11 11.467C22.536 17.654 11.27 32 11.27 32S0 17.493 0 11.467zm10.997 4.704c2.208 0 3.87-1.35 3.87-3.412 0-2.02-1.62-3.143-3.297-3.143-.853 0-1.69.34-2.166.967v-.028c0-1.152 1.118-1.65 2.04-1.65.685 0 1.188.128 1.72.512l1.187-2.22c-.74-.51-1.844-.824-2.906-.824-2.893 0-4.89 1.735-4.89 4.907 0 2.772 1.383 4.89 4.443 4.89zm-.182-2.53c-.978 0-1.37-.57-1.425-1.21.377-.3.838-.384 1.314-.384.56 0 1.3.213 1.3.825 0 .4-.475.77-1.188.77z"/><rect fill="none" x="0" y="0" width="23" height="32"></rect></svg>