<svg id="marker-letter-o" width="23" height="32" viewBox="0 0 23 32" xmlns="http://www.w3.org/2000/svg"><path fill="currentColor" d="M0 11.467C0 5.12 5.346 0 11.425 0s11.11 5.12 11.11 11.467C22.536 17.654 11.27 32 11.27 32S0 17.493 0 11.467zm11.215 4.57c2.88 0 5.1-1.992 5.1-4.908s-2.22-4.908-5.1-4.908c-2.88 0-5.1 1.99-5.1 4.907s2.22 4.906 5.1 4.906zm0-2.533c-1.356 0-2.236-1.052-2.236-2.375s.88-2.376 2.235-2.376c1.356 0 2.236 1.052 2.236 2.375s-.88 2.374-2.235 2.374z"/><rect fill="none" x="0" y="0" width="23" height="32"></rect></svg>