<svg id="marker-letter-u" width="23" height="32" viewBox="0 0 23 32" xmlns="http://www.w3.org/2000/svg"><path fill="currentColor" d="M0 11.467c0-6.347 5.346-11.467 11.425-11.467s11.111 5.12 11.111 11.467c0 6.187-11.268 20.533-11.268 20.533s-11.268-14.507-11.268-20.533v0zM11.599 15.879c3.144 0 4.598-1.721 4.598-4.082v-5.575h-2.865v5.49c0 0.91-0.587 1.636-1.733 1.636-1.16 0-1.747-0.725-1.747-1.636v-5.49h-2.865v5.589c0 2.347 1.467 4.068 4.612 4.068z"/><rect fill="none" x="0" y="0" width="23" height="32"></rect></svg>