<svg id="multi-link" width="32" height="32" viewBox="0 0 32 32" xmlns="http://www.w3.org/2000/svg"><path fill="currentColor" d="M20.77 7.65c-.658.66-1.727.658-2.383.002l-1.195-1.195c-.658-.658-.663-1.72 0-2.384l3.58-3.578c.658-.66 1.724-.66 2.38-.003l8.356 8.355c.657.657.656 1.723 0 2.38L18.383 24.35c-.658.658-1.72.662-2.384 0l-3.578-3.58c-.66-.658-.657-1.728 0-2.383l1.194-1.196c.658-.657 1.72-.66 2.384.003l.596.596c.33.328.865.327 1.197-.005l7.148-7.148c.333-.332.333-.87.01-1.19l-2.396-2.398c-.326-.327-.855-.327-1.187.005l-.596.596zm-9.54 16.7c.658-.66 1.728-.658 2.384-.002l1.195 1.195c.657.658.66 1.72-.002 2.384l-3.58 3.578c-.657.66-1.724.66-2.38.003L.49 23.153c-.657-.657-.656-1.723 0-2.38L13.618 7.65c.657-.658 1.72-.662 2.383 0l3.578 3.58c.66.658.657 1.728 0 2.383l-1.194 1.196c-.658.657-1.72.66-2.384-.003l-.596-.596c-.33-.328-.865-.327-1.197.005L7.06 21.363c-.333.332-.332.87-.01 1.19l2.396 2.398c.326.327.855.327 1.187-.005l.596-.596zm8.945-18.487l1.192-1.194c.33-.33.86-.332 1.193 0l1.187 1.187 2.396 2.396L27.33 9.44c.33.33.332.86 0 1.193l-1.196 1.197-7.148 7.148-1.197 1.196c-.33.33-.862.332-1.194 0l-1.192-1.192c-.33-.33-.862-.332-1.194 0-.33.33-.327.866-.005 1.188l2.397 2.396c.326.326.853.328 1.19-.008l11.924-11.925c.33-.33.33-.867-.003-1.2L22.56 2.286c-.33-.33-.868-.33-1.19-.01l-2.394 2.4c-.326.326-.326.856.006 1.188.33.33.862.332 1.193 0zm-8.35 20.274l-1.192 1.194c-.33.33-.86.332-1.193 0l-1.187-1.187-2.396-2.396L4.67 22.56c-.33-.33-.332-.86 0-1.193l1.196-1.197 7.148-7.148 1.197-1.196c.33-.33.862-.332 1.194 0l1.192 1.192c.33.33.862.332 1.194 0 .33-.33.328-.866.006-1.188l-2.398-2.396c-.326-.326-.853-.328-1.19.008L2.285 21.367c-.33.33-.33.867.003 1.2l7.152 7.148c.33.33.868.33 1.19.01l2.395-2.4c.326-.326.325-.856-.007-1.188-.33-.33-.862-.332-1.193 0z"/><path fill="currentColor" opacity="0.25" class="icon__bg" d="M20.77 7.65c-.658.66-1.727.658-2.383.002l-1.195-1.195c-.658-.658-.663-1.72 0-2.384l3.58-3.578c.658-.66 1.724-.66 2.38-.003l8.356 8.355c.657.657.656 1.723 0 2.38L18.383 24.35c-.658.658-1.72.662-2.384 0l-3.578-3.58c-.66-.658-.657-1.728 0-2.383l1.194-1.196c.658-.657 1.72-.66 2.384.003l.596.596c.33.328.865.327 1.197-.005l7.148-7.148c.333-.332.333-.87.01-1.19l-2.396-2.398c-.326-.327-.855-.327-1.187.005l-.596.596zm-9.54 16.7c.658-.66 1.728-.658 2.384-.002l1.195 1.195c.657.658.66 1.72-.002 2.384l-3.58 3.578c-.657.66-1.724.66-2.38.003L.49 23.153c-.657-.657-.656-1.723 0-2.38L13.618 7.65c.657-.658 1.72-.662 2.383 0l3.578 3.58c.66.658.657 1.728 0 2.383l-1.194 1.196c-.658.657-1.72.66-2.384-.003l-.596-.596c-.33-.328-.865-.327-1.197.005L7.06 21.363c-.333.332-.332.87-.01 1.19l2.396 2.398c.326.327.855.327 1.187-.005l.596-.596z"/><rect fill="none" x="0" y="0" width="32" height="32"></rect></svg>