<svg id="multi-termination" width="32" height="32" viewBox="0 0 32 32" xmlns="http://www.w3.org/2000/svg"><path fill="currentColor" d="M14.586 16L8.223 9.637c-.397-.397-.39-1.025 0-1.415.392-.393 1.024-.39 1.414 0L16 14.587l6.363-6.363c.397-.397 1.025-.39 1.415 0 .393.392.39 1.024 0 1.414L17.413 16l6.363 6.363c.398.398.39 1.025 0 1.415-.392.393-1.024.39-1.414 0L16 17.413l-6.363 6.363c-.397.397-1.025.39-1.415 0-.393-.392-.39-1.024 0-1.414L14.587 16zM0 16C0 7.163 7.163 0 16 0s16 7.163 16 16-7.163 16-16 16S0 24.837 0 16zm30 0c0-7.732-6.268-14-14-14S2 8.268 2 16s6.268 14 14 14 14-6.268 14-14z"/><path fill="currentColor" opacity="0.25" class="icon__bg" d="M16 0C7.2 0 0 7.2 0 16s7.2 16 16 16 16-7.2 16-16S24.8 0 16 0z"/><rect fill="none" x="0" y="0" width="32" height="32"></rect></svg>