<svg id="multi-response" width="32" height="32" viewBox="0 0 32 32" xmlns="http://www.w3.org/2000/svg"><path fill="currentColor" d="M15.5 26.8L24.8 31.9C25.5 32.3 26.4 31.6 26.3 30.8L24.5 20 24.2 20.9 31.7 13.2C32.3 12.6 32 11.6 31.2 11.4L20.8 9.9 21.5 10.4 16.9 0.6C16.5-0.2 15.5-0.2 15.1 0.6L10.5 10.4 11.2 9.9 0.8 11.4C0 11.6-0.3 12.6 0.3 13.2L7.8 20.9 7.5 20 5.7 30.8C5.6 31.6 6.5 32.3 7.2 31.9L16.5 26.8 15.5 26.8 15.5 26.8ZM16 3.4L19.8 11.3C19.9 11.6 20.2 11.9 20.5 11.9L28.9 13.2 22.8 19.4C22.6 19.6 22.5 20 22.5 20.3L24 29.1 16.5 24.9C16.2 24.8 15.8 24.8 15.5 24.9L8 29 9.5 20.3C9.5 20 9.4 19.6 9.2 19.4L3.1 13.2 11.5 11.9C11.8 11.9 12.1 11.6 12.2 11.3L16 3.4 16 3.4Z"/><path fill="currentColor" opacity="0.25" class="icon__bg" d="M16.5 26.8l9.3 5.1c.7.4 1.6-.3 1.5-1.1L25.5 20l-.3.9 7.5-7.7c.6-.6.3-1.6-.5-1.8L21.8 9.9l.7.5L17.9.6c-.4-.8-1.4-.8-1.8 0l-4.6 9.8.7-.5-10.4 1.5c-.8.2-1.1 1.2-.5 1.8l7.5 7.7-.3-.9-1.8 10.8c-.1.8.8 1.5 1.5 1.1l9.3-5.1h-1z"/><rect fill="none" x="0" y="0" width="32" height="32"></rect></svg>