<svg id="multi-other" width="32" height="32" viewBox="0 0 32 32" xmlns="http://www.w3.org/2000/svg"><path fill="currentColor" d="M22.634 28.5l.866-.5h-15l.866.5-7.5-13v1l7.5-13L8.5 4h15l-.866-.5 7.5 13v-1l-7.5 13zm9.232-13l-7.5-13c-.178-.31-.51-.5-.866-.5h-15c-.357 0-.688.19-.866.5l-7.5 13c-.18.31-.18.69 0 1l7.5 13c.178.31.51.5.866.5h15c.357 0 .688-.19.866-.5l7.5-13c.18-.31.18-.69 0-1z"/><path fill="currentColor" opacity="0.25" class="icon__bg" d="M31.866 15.5l-7.5-13c-.178-.31-.51-.5-.866-.5h-15c-.357 0-.688.19-.866.5l-7.5 13c-.18.31-.18.69 0 1l7.5 13c.178.31.51.5.866.5h15c.357 0 .688-.19.866-.5l7.5-13c.18-.31.18-.69 0-1z"/><rect fill="none" x="0" y="0" width="32" height="32"></rect></svg>