<svg id="multi-folder" width="32" height="32" viewBox="0 0 32 32" xmlns="http://www.w3.org/2000/svg"><path fill="currentColor" d="M29.998 5C31.104 5 32 5.895 32 6.997v22.006C32 30.106 31.11 31 29.998 31H2.002C.896 31 0 30.105 0 29.003V2.998C0 1.894.902 1 2.01 1h7.98C11.1 1 12 1.898 12 2.998V5h17.998zM12 7h-2V2.998C10 3.003 2.01 3 2.01 3 2.002 3 2 6 2 6v23.003C2 29 29.998 29 29.998 29 30.004 29 30 6.997 30 6.997 30 7 12 7 12 7zM2 12v2h28v-2H2z"/><path fill="currentColor" opacity="0.25" class="icon__bg" d="M29.998 5C31.104 5 32 5.895 32 6.997v22.006C32 30.106 31.11 31 29.998 31H2.002C.896 31 0 30.105 0 29.003V2.998C0 1.894.902 1 2.01 1h7.98C11.1 1 12 1.898 12 2.998V5h17.998z"/><rect fill="none" x="0" y="0" width="32" height="32"></rect></svg>