<svg id="multi-information" width="32" height="32" viewBox="0 0 32 32" xmlns="http://www.w3.org/2000/svg"><path fill="currentColor" d="M0 16C0 7.2 7.2 0 16 0 24.8 0 32 7.2 32 16 32 24.8 24.8 32 16 32 7.2 32 0 24.8 0 16L0 16ZM30 16C30 8.3 23.7 2 16 2 8.3 2 2 8.3 2 16 2 23.7 8.3 30 16 30 23.7 30 30 23.7 30 16L30 16ZM18.4 12.2L16.6 12.2 11.7 12.9 11.7 15.2 11.9 15.2C13.8 15.4 13.8 15.9 13.8 17.5L13.8 21.3C13.8 23 13.8 23.6 11.7 23.8L11.7 26 20.3 26 20.3 23.8C18.5 23.5 18.4 23 18.4 21.6L18.4 12.2 18.4 12.2ZM15.9 6C14.4 6 13.2 7.2 13.2 8.7 13.2 10.1 14.3 11.3 15.7 11.3 17.2 11.3 18.4 10.1 18.4 8.6 18.4 7.2 17.3 6 15.9 6L15.9 6Z"/><path fill="currentColor" opacity="0.25" class="icon__bg" d="M16 0C7.2 0 0 7.2 0 16s7.2 16 16 16 16-7.2 16-16S24.8 0 16 0z"/><rect fill="none" x="0" y="0" width="32" height="32"></rect></svg>