<svg id="multi-warning" width="32" height="32" viewBox="0 0 32 32" xmlns="http://www.w3.org/2000/svg"><path fill="currentColor" d="M0 16C0 7.163 7.163 0 16 0s16 7.163 16 16-7.163 16-16 16S0 24.837 0 16zm30 0c0-7.732-6.268-14-14-14S2 8.268 2 16s6.268 14 14 14 14-6.268 14-14zM18.752 6.95l.042-.95h-5.639l.045.95.512 10.988.04.867h4.473l.038-.87.49-10.986zM15.25 16.986l-.234-9.17h1.92l-.236 9.17h-1.45zm3.624 6.15c0-1.576-1.31-2.886-2.886-2.886s-2.862 1.31-2.862 2.888c0 1.558 1.292 2.862 2.862 2.862s2.886-1.305 2.886-2.862zm-3.93 0c0-.58.48-1.068 1.044-1.068.572 0 1.068.496 1.068 1.068 0 .55-.498 1.044-1.068 1.044-.562 0-1.044-.486-1.044-1.044z"/><path fill="currentColor" opacity="0.25" class="icon__bg" d="M0 16C0 7.163 7.163 0 16 0s16 7.163 16 16-7.163 16-16 16S0 24.837 0 16zm18.752-9.05l.042-.95h-5.639l.045.95.512 10.988.04.867h4.473l.038-.87.49-10.986zm.122 16.188c0-1.577-1.31-2.887-2.886-2.887s-2.862 1.31-2.862 2.888c0 1.558 1.292 2.862 2.862 2.862s2.886-1.305 2.886-2.862z"/><rect fill="none" x="0" y="0" width="32" height="32"></rect></svg>