<svg id="multi-text" width="32" height="32" viewBox="0 0 32 32" xmlns="http://www.w3.org/2000/svg"><path fill="currentColor" d="M2 32H0v-5.846l1.43-.425c1.24-.368 1.534-.697 2.518-3.265l8.148-21.183L12.59 0h7.062l.483 1.307 8.147 22.073c.756 2.04.84 2.125 1.993 2.286l1.724.24V32H16.593V25.71l2.932-.063-1.266-3.873h-6.546L10.37 25.71h2.852V32H2zm0-2h9.222v-2.354c-2.074-.203-2.852-.974-2.852-1.704 0-.365.074-1.014.556-2.313l1.37-3.856h9.334l1.777 4.95c.26.73.445 1.3.445 1.664 0 .77-.778 1.177-3.26 1.258V30H30v-2.354c-2.037-.284-2.63-.974-3.593-3.57L18.26 2h-4.297L5.815 23.183C4.555 26.47 3.778 27.12 2 27.646V30zM15 6.707l3.74 10.47h-7.48L15 6.707zm0 5.926l.935 2.618h-1.87L15 12.634z"/><path fill="currentColor" opacity="0.25" class="icon__bg" d="M2 32H0v-5.846l1.43-.425c1.24-.368 1.534-.697 2.518-3.265l8.148-21.183L12.59 0h7.062l.483 1.307 8.147 22.073c.756 2.04.84 2.125 1.993 2.286l1.724.24V32H16.593V25.71l2.932-.063-1.266-3.873h-6.546L10.37 25.71h2.852V32H2zm13-19.367l.935 2.618h-1.87L15 12.634z"/><rect fill="none" x="0" y="0" width="32" height="32"></rect></svg>