<svg id="multi-folder-alt" width="32" height="32" viewBox="0 0 32 32" xmlns="http://www.w3.org/2000/svg"><path fill="currentColor" d="M3 13H0V2.998C0 1.894.902 1 2.01 1h7.98C11.1 1 12 1.898 12 2.998V5h17.998C31.104 5 32 5.895 32 6.997V13h-3c0-2.208-1.793-4-4.006-4H7.006C4.786 9 3 10.79 3 13z"/><path fill="currentColor" opacity="0.25" class="icon__bg" d="M29.998 5C31.104 5 32 5.895 32 6.997v22.006C32 30.106 31.11 31 29.998 31H2.002C.896 31 0 30.105 0 29.003V2.998C0 1.894.902 1 2.01 1h7.98C11.1 1 12 1.898 12 2.998V5h17.998z"/><rect fill="none" x="0" y="0" width="32" height="32"></rect></svg>